<svg xmlns="http://www.w3.org/2000/svg" viewBox="0 0 128 128"><g data-name="Layer 5"><path fill="#ce9961" d="M121.973,43.014v10.17a5.936,5.936,0,0,1-5.93,5.93H83.753l-1.2-8.82-1.8-13.21h35.29A5.936,5.936,0,0,1,121.973,43.014Z"/><path fill="#fcf6f2" d="M112.263,37.084v12.3a2.174,2.174,0,0,1-.02.36,4.459,4.459,0,0,1-4.44,4.11H83.343l-.54-3.57-1.99-13.2Z"/><path fill="#ce9961" d="M83.72,59.114h32.321a5.932,5.932,0,0,1,5.931,5.931V75.213a5.932,5.932,0,0,1-5.931,5.931h-32"/><path fill="#fcf6f2" d="M83.75,59.114h28.517v12.3A4.466,4.466,0,0,1,107.8,75.88H84.343"/><path fill="#ce9961" d="M84.043,81.144h32a5.931,5.931,0,0,1,5.931,5.931V97.242a5.931,5.931,0,0,1-5.931,5.931H80.815"/><path fill="#fcf6f2" d="M84.1,81.144h28.171v12.3A4.467,4.467,0,0,1,107.8,97.91H81.99"/><line x1="98.366" x2="98.33" y1="37.146" y2="47.951" fill="none"/><line x1="98.366" x2="98.33" y1="59.114" y2="69.919" fill="none"/><line x1="98.366" x2="98.33" y1="81.144" y2="91.949" fill="none"/><line x1="104.767" x2="104.732" y1="37.146" y2="44.62" fill="none"/><line x1="104.767" x2="104.732" y1="59.114" y2="66.588" fill="none"/><line x1="104.767" x2="104.732" y1="81.144" y2="88.617" fill="none"/><path fill="#b28252" d="M121.973,49.484v3.7a5.936,5.936,0,0,1-5.93,5.93H83.753l-1.2-8.82q17.145-.315,34.32-.64C118.573,49.614,120.273,49.584,121.973,49.484Z"/><path fill="#e2d9d5" d="M112.243,49.744a4.459,4.459,0,0,1-4.44,4.11H83.343l-.54-3.57Z"/><path fill="#b28252" d="M121.973,71.514v3.7a5.936,5.936,0,0,1-5.93,5.93H83.753l-1.2-8.82q17.145-.315,34.32-.64C118.573,71.644,120.273,71.614,121.973,71.514Z"/><path fill="#e2d9d5" d="M112.243,71.774a4.459,4.459,0,0,1-4.44,4.11H83.343l-.54-3.57Z"/><path fill="#b28252" d="M121.973,93.543v3.7a5.936,5.936,0,0,1-5.93,5.93H79.227l2.763-8.82,34.883-.64C118.573,93.673,120.273,93.643,121.973,93.543Z"/><path fill="#e2d9d5" d="M112.243,93.8a4.459,4.459,0,0,1-4.44,4.11l-26.757,0,.944-3.557C91.8,94.173,102.423,93.983,112.243,93.8Z"/><path fill="#ce9961" d="M79.2,30.024c1.11,4.56,6.58,28.55,4.65,53.93a104.592,104.592,0,0,1-4.53,24.3,1.966,1.966,0,0,0,.3,1.78c.63.87,1.65,2.31,2.48,3.7a1.615,1.615,0,0,1-1.98,2.25,21.135,21.135,0,0,1-4.35-1.7,2.469,2.469,0,0,0-1.85-.14,100.084,100.084,0,0,1-27.78,3.92,100.849,100.849,0,0,1-27.78-3.92,2.494,2.494,0,0,0-1.86.14,21.076,21.076,0,0,1-4.34,1.7,1.613,1.613,0,0,1-1.98-2.25c.82-1.39,1.84-2.83,2.48-3.7a1.962,1.962,0,0,0,.29-1.78,105.832,105.832,0,0,1-4.57-24.82c-1.81-25.19,3.59-48.88,4.69-53.41a1.173,1.173,0,0,0-.52-1.25c-3.84-2.66-5.12-5.15-4.44-6.42a1.357,1.357,0,0,1,1.29-.61,10.025,10.025,0,0,1,4.56,1.89,1.4,1.4,0,0,0,1.62-.01c7.94-5.91,30.56-6.17,30.56-6.17s22.62.26,30.55,6.17a1.4,1.4,0,0,0,1.62.01,10.019,10.019,0,0,1,4.57-1.89,1.341,1.341,0,0,1,1.28.61c.69,1.27-.59,3.76-4.44,6.42A1.189,1.189,0,0,0,79.2,30.024Z"/><path fill="#fcf6f2" d="M69.953,37.074v67.86a2.221,2.221,0,0,1-2.22,2.22H24.543a2.228,2.228,0,0,1-2.22-2.22V37.074a2.221,2.221,0,0,1,2.22-2.22h43.19A2.215,2.215,0,0,1,69.953,37.074Z"/><line x1="33.424" x2="58.875" y1="85.147" y2="85.211" fill="none"/><line x1="39.185" x2="53.087" y1="92.855" y2="92.89" fill="none"/><path fill="#0cbc0c" d="M46.144,56.551s-.411-6.813,7.371-8.608S54.238,58.415,46.144,56.551Z"/><path fill="#0ba00b" d="M46.136,56.551s.411-6.813-7.371-8.608S38.042,58.415,46.136,56.551Z"/><path fill="#d58783" d="M46.14,66.886c-7.028,0-12.726,4.741-12.726,10.59H58.866C58.866,71.627,53.168,66.886,46.14,66.886Z"/><path fill="#b28252" d="M82.1,113.734a1.615,1.615,0,0,1-1.98,2.25,21.135,21.135,0,0,1-4.35-1.7,2.469,2.469,0,0,0-1.85-.14,100.084,100.084,0,0,1-27.78,3.92,100.849,100.849,0,0,1-27.78-3.92,2.494,2.494,0,0,0-1.86.14,21.076,21.076,0,0,1-4.34,1.7,1.613,1.613,0,0,1-1.98-2.25c.82-1.39,1.84-2.83,2.48-3.7a1.962,1.962,0,0,0,.29-1.78,105.832,105.832,0,0,1-4.57-24.82c.07.05.14.1.2.14q2.22,1.485,4.58,2.76a58.444,58.444,0,0,0,21.03,6.64,56.335,56.335,0,0,0,12.45.07c2.1-.22,4.18-.56,6.26-.93a200.6,200.6,0,0,0,30.95-8.16,104.592,104.592,0,0,1-4.53,24.3,1.966,1.966,0,0,0,.3,1.78C80.253,110.9,81.273,112.344,82.1,113.734Z"/><path fill="#e2d9d5" d="M69.953,88.284v16.65a2.221,2.221,0,0,1-2.22,2.22H24.543a2.228,2.228,0,0,1-2.22-2.22V90.314a58.237,58.237,0,0,0,11.87,2.66,56.335,56.335,0,0,0,12.45.07c2.1-.22,4.18-.56,6.26-.93Q61.513,90.569,69.953,88.284Z"/></g><g data-name="Layer 1"><path fill="#414456" d="M32.411,77.518a1,1,0,0,0,1,1H58.862a1,1,0,0,0,1-1c0-6.108-5.626-11.114-12.729-11.548V57.746c.234.019.469.038.7.038a11.23,11.23,0,0,0,8.8-4.951c1.3-1.9,1.6-3.731.8-4.894-.507-.743-1.639-1.509-4.153-.929-4.108.947-6.138,3.209-7.15,5.305-1.011-2.1-3.042-4.358-7.151-5.3-2.513-.58-3.645.186-4.153.929-.8,1.163-.494,2.993.8,4.894a11.228,11.228,0,0,0,8.8,4.951c.229,0,.461-.019.693-.038V65.97C38.033,66.407,32.411,71.412,32.411,77.518Zm25.388-1H34.475c.613-4.82,5.609-8.591,11.662-8.591S57.186,71.7,57.8,76.518ZM53.736,48.959c1.258-.29,1.894-.124,2.053.108.241.354.042,1.4-.8,2.639-1.547,2.267-4.571,4.381-7.814,4.046C47.343,54.071,48.334,50.205,53.736,48.959ZM37.289,51.706c-.847-1.24-1.046-2.285-.8-2.639.1-.143.379-.263.88-.263a5.329,5.329,0,0,1,1.173.155c5.4,1.246,6.4,5.113,6.567,6.793C41.86,56.087,38.836,53.973,37.289,51.706Z"/><path fill="#414456" d="M67.731,33.9H24.542a3.225,3.225,0,0,0-3.221,3.221v67.855a3.225,3.225,0,0,0,3.221,3.221H67.731a3.224,3.224,0,0,0,3.221-3.221V37.117A3.224,3.224,0,0,0,67.731,33.9Zm1.221,71.076a1.223,1.223,0,0,1-1.221,1.221H24.542a1.223,1.223,0,0,1-1.221-1.221V37.117A1.223,1.223,0,0,1,24.542,35.9H67.731a1.223,1.223,0,0,1,1.221,1.221Z"/><path fill="#414456" d="M122.969,53.225V43.057a6.939,6.939,0,0,0-6.931-6.93H81.553c-.57-2.863-1.073-5.034-1.382-6.3v0c-.016-.062.049-.139.119-.188,4-2.775,5.827-5.734,4.756-7.721a2.351,2.351,0,0,0-2.227-1.137,10.781,10.781,0,0,0-5.076,2.07.406.406,0,0,1-.454.006c-8.1-6.034-30.2-6.353-31.163-6.364-.937.011-23.038.33-31.14,6.364a.4.4,0,0,1-.454-.006,10.782,10.782,0,0,0-5.075-2.07,2.327,2.327,0,0,0-2.227,1.136c-1.072,1.988.75,4.947,4.755,7.722.071.049.135.126.119.19C10.264,37.344,1.615,76.451,12,108.6a.967.967,0,0,1-.149.888c-.7.958-1.7,2.389-2.533,3.777A2.42,2.42,0,0,0,9.466,116a2.778,2.778,0,0,0,2.947.987,21.792,21.792,0,0,0,4.553-1.777,1.454,1.454,0,0,1,1.085-.073,101.28,101.28,0,0,0,27.574,3.97h1.008a101.35,101.35,0,0,0,27.591-3.97,1.443,1.443,0,0,1,1.084.073,21.77,21.77,0,0,0,4.553,1.777A2.775,2.775,0,0,0,82.808,116a2.418,2.418,0,0,0,.149-2.739c-.828-1.389-1.834-2.82-2.534-3.779a.972.972,0,0,1-.15-.886c.468-1.448.884-2.913,1.277-4.386h34.488a6.939,6.939,0,0,0,6.931-6.931V87.116a6.926,6.926,0,0,0-3.363-5.931,6.928,6.928,0,0,0,3.363-5.931V65.087a6.926,6.926,0,0,0-3.363-5.931A6.928,6.928,0,0,0,122.969,53.225Zm-25.61-15.1-.032,9.862a1,1,0,0,0,1,1h0a1,1,0,0,0,1-1l.032-9.869h4.4l-.03,6.529a1,1,0,0,0,1,1.005h0a1,1,0,0,0,1-1l.03-6.539h5.5v11.3a3.471,3.471,0,0,1-3.467,3.466H84.143c-.64-5.74-1.453-10.779-2.2-14.765Zm.965,32.833h0a1,1,0,0,0,1-1l.032-9.807h4.4l-.03,6.468a1,1,0,0,0,1,1.005h0a1,1,0,0,0,1-1l.03-6.478h5.5v11.3a3.471,3.471,0,0,1-3.467,3.466H85.278c.068-5.126-.118-10.1-.46-14.765H97.359l-.032,9.8A1,1,0,0,0,98.324,70.96Zm0,22.03h0a1,1,0,0,0,1-1l.032-9.807h4.4l-.03,6.469a1,1,0,0,0,1,1h0a1,1,0,0,0,1-1l.03-6.478h5.5v11.3A3.47,3.47,0,0,1,107.8,96.95H83.2A121.8,121.8,0,0,0,85,82.185h12.36l-.032,9.8A1,1,0,0,0,98.324,92.99Zm-17.085,21.3a.424.424,0,0,1-.029.513.787.787,0,0,1-.84.256,19.848,19.848,0,0,1-4.135-1.615,3.422,3.422,0,0,0-2.622-.206,99.173,99.173,0,0,1-26.989,3.874l-.493,0a100.426,100.426,0,0,1-27.47-3.872,3.423,3.423,0,0,0-2.623.206,19.84,19.84,0,0,1-4.134,1.615.79.79,0,0,1-.841-.256.423.423,0,0,1-.028-.514c.788-1.321,1.756-2.7,2.429-3.621a2.955,2.955,0,0,0,.438-2.682c-10.434-32.3-.97-73.13.143-77.677A2.178,2.178,0,0,0,13.123,28c-3.758-2.6-4.412-4.612-4.135-5.127a.477.477,0,0,1,.352-.09A9.118,9.118,0,0,1,13.4,24.5a2.422,2.422,0,0,0,2.786-.037C23.762,18.816,45.925,18.5,46.125,18.5c.224,0,22.387.321,29.968,5.967a2.42,2.42,0,0,0,2.786.037,9.112,9.112,0,0,1,4.056-1.719.511.511,0,0,1,.349.088c.278.517-.376,2.525-4.134,5.129a2.178,2.178,0,0,0-.922,2.309c1.114,4.549,10.578,45.375.142,77.68a2.955,2.955,0,0,0,.439,2.68C79.482,111.589,80.45,112.967,81.239,114.289Zm39.73-27.173V97.283a4.937,4.937,0,0,1-4.931,4.931H82.069q.4-1.624.734-3.264H107.8a5.472,5.472,0,0,0,5.467-5.465v-11.3h2.774A4.937,4.937,0,0,1,120.969,87.116Zm0-22.029V75.254a4.937,4.937,0,0,1-4.931,4.931H85.114q.081-1.639.122-3.264H107.8a5.472,5.472,0,0,0,5.467-5.466v-11.3h2.774A4.937,4.937,0,0,1,120.969,65.087ZM84.658,58.156c-.093-1.106-.192-2.2-.3-3.264H107.8a5.472,5.472,0,0,0,5.467-5.466v-11.3h2.774a4.936,4.936,0,0,1,4.931,4.93V53.225a4.937,4.937,0,0,1-4.931,4.931Z"/><path fill="#414456" d="M58.875 84.253l-25.451-.065h0a1 1 0 0 0 0 2l25.451.065h0a1 1 0 0 0 0-2zM53.087 91.931l-13.9-.035h0a1 1 0 0 0 0 2l13.9.035h0a1 1 0 0 0 0-2z"/></g></svg>