<svg xmlns="http://www.w3.org/2000/svg" width="375" viewBox="0 0 375 375" height="375" version="1.0"><defs><clipPath id="a"><path d="M 173.289062 180.21875 L 238.074219 180.21875 L 238.074219 207.746094 L 173.289062 207.746094 Z M 173.289062 180.21875"/></clipPath><clipPath id="b"><path d="M 136.832031 195 L 165 195 L 165 199 L 136.832031 199 Z M 136.832031 195"/></clipPath><clipPath id="c"><path d="M 136.832031 200 L 157 200 L 157 203 L 136.832031 203 Z M 136.832031 200"/></clipPath><clipPath id="d"><path d="M 136.839844 199.019531 L 237.246094 199.019531 L 237.246094 248.277344 L 136.839844 248.277344 Z M 136.839844 199.019531"/></clipPath><clipPath id="e"><path d="M 146.230469 208.867188 L 218.910156 208.867188 L 218.910156 248.277344 L 146.230469 248.277344 Z M 146.230469 208.867188"/></clipPath><clipPath id="f"><path d="M 138 145.527344 L 238 145.527344 L 238 187 L 138 187 Z M 138 145.527344"/></clipPath></defs><path fill="#1B1B1B" d="M 187.453125 256.515625 C 171.523438 256.515625 156.527344 250.316406 145.273438 239.039062 C 133.992188 227.78125 127.792969 212.785156 127.792969 196.855469 C 127.792969 180.929688 133.992188 165.929688 145.273438 154.675781 C 156.527344 143.398438 171.523438 137.199219 187.453125 137.199219 C 203.378906 137.199219 218.378906 143.398438 229.632812 154.675781 C 240.910156 165.953125 247.109375 180.929688 247.109375 196.855469 C 247.109375 212.785156 240.910156 227.78125 229.632812 239.039062 C 218.378906 250.316406 203.378906 256.515625 187.453125 256.515625 Z M 187.453125 140.773438 C 172.476562 140.773438 158.386719 146.617188 147.800781 157.203125 C 137.210938 167.789062 131.371094 181.882812 131.371094 196.855469 C 131.371094 211.832031 137.210938 225.921875 147.800781 236.511719 C 158.386719 247.097656 172.476562 252.9375 187.453125 252.9375 C 202.425781 252.9375 216.519531 247.097656 227.105469 236.511719 C 237.691406 225.921875 243.535156 211.832031 243.535156 196.855469 C 243.535156 181.882812 237.691406 167.789062 227.105469 157.203125 C 216.519531 146.617188 202.425781 140.773438 187.453125 140.773438 Z M 187.453125 140.773438"/><path fill="#1B1B1B" d="M 218.902344 189.570312 L 210.074219 178.375 L 191.058594 178.300781 L 200.242188 189.570312 L 218.902344 189.570312"/><g clip-path="url(#a)"><path fill="#1B1B1B" d="M 220.257812 189.921875 L 218.507812 190.523438 L 217.441406 196.703125 L 217.441406 190.378906 L 211.898438 190.378906 L 211.898438 194.152344 L 214.484375 194.152344 L 214.484375 194.859375 L 210.773438 194.859375 L 210.773438 190.378906 L 203.078125 190.378906 L 203.078125 194.152344 L 205.644531 194.152344 L 205.644531 194.859375 L 201.96875 194.859375 L 201.96875 190.378906 L 199.8125 190.378906 L 198.191406 189.046875 L 198.191406 198.761719 C 196.523438 198.960938 194.914062 199.195312 193.375 199.457031 L 193.375 190.9375 L 195.441406 190.9375 L 196.367188 194.492188 L 196.367188 189.621094 L 191.605469 189.621094 L 191.605469 199.773438 C 187.167969 200.597656 183.367188 201.601562 180.378906 202.519531 C 178.105469 201.566406 175.8125 200.71875 173.476562 199.957031 C 173.683594 200.515625 173.777344 201.226562 173.816406 201.777344 C 175.117188 202.3125 176.328125 202.878906 177.476562 203.464844 C 176.070312 203.949219 174.964844 204.371094 174.199219 204.679688 C 174.625 204.9375 175.085938 205.339844 175.453125 205.972656 C 175.785156 206.558594 175.917969 207.132812 175.9375 207.648438 C 192.308594 199.675781 210.964844 196.011719 238.074219 201.109375 C 238.074219 201.109375 236.3125 200.148438 230.976562 199.292969 C 232.578125 198.363281 233.070312 195.710938 231.15625 194.859375 C 231.15625 194.859375 231.890625 194.859375 232.488281 193.984375 C 233.089844 193.109375 231.796875 191.816406 231.796875 191.816406 C 231.796875 191.816406 232.488281 191.722656 232.773438 190.613281 C 233.046875 189.503906 230.738281 189.230469 230.738281 189.230469 C 230.738281 189.230469 232.449219 188.160156 231.753906 186.550781 C 231.0625 184.933594 228.703125 185.347656 228.703125 185.347656 C 228.703125 185.347656 229.355469 184.515625 228.703125 183.546875 C 228.0625 182.570312 226.769531 183.40625 226.769531 183.40625 C 226.769531 183.40625 227.371094 181.234375 225.195312 180.585938 C 223.027344 179.941406 221.695312 181.601562 221.695312 181.601562 C 221.695312 181.601562 221.734375 180.636719 220.441406 180.542969 C 219.152344 180.453125 219.152344 182.664062 219.152344 182.664062 C 219.152344 182.664062 218.226562 181.601562 217.207031 182.480469 C 216.199219 183.355469 216.75 185.066406 216.75 185.066406 L 220.257812 189.921875"/></g><path fill="#1B1B1B" d="M 180.929688 201.21875 C 181.953125 200.859375 182.988281 200.507812 184.019531 200.148438 C 184.019531 200.148438 183.863281 200.046875 183.539062 199.871094 L 183.539062 191.515625 L 183.582031 190.039062 L 190.589844 181.4375 L 195.84375 185.78125 L 190.230469 179.316406 L 181.707031 189.613281 L 181.164062 189.046875 L 184.179688 185.140625 C 184.179688 185.140625 184.570312 184.238281 184.019531 183.707031 C 183.464844 183.171875 182.769531 183.757812 182.769531 183.757812 C 182.769531 183.757812 183.863281 182.855469 182.472656 182.203125 C 181.085938 181.554688 180.277344 182.945312 180.277344 182.945312 C 180.277344 182.945312 179.636719 179.777344 177.925781 180.453125 C 176.21875 181.121094 176.492188 183.171875 176.492188 183.171875 C 176.492188 183.171875 174.328125 182.347656 173.882812 183.757812 C 173.453125 185.15625 175.136719 186.476562 175.136719 186.476562 C 173.628906 186.003906 172.695312 186.328125 172.132812 187.175781 L 172.132812 186.015625 L 173.242188 185.417969 L 167.683594 178.300781 L 154.011719 178.300781 L 149.910156 184.199219 L 154.277344 179.375 L 154.773438 179.382812 L 152.292969 183.957031 L 156.386719 179.40625 L 157.0625 179.414062 L 154.601562 183.957031 L 158.664062 179.4375 L 159.535156 179.453125 L 157.09375 183.957031 L 161.125 179.476562 L 162.058594 179.488281 L 159.636719 183.957031 L 163.636719 179.511719 L 164.300781 179.519531 L 161.898438 183.957031 L 165.867188 179.542969 L 166.53125 179.554688 L 162.1875 185.046875 L 149.46875 185.046875 L 149.558594 185.949219 L 161.839844 185.949219 L 161.839844 193.667969 C 157.550781 193.082031 153.441406 192.882812 149.839844 192.878906 L 149.824219 192.714844 L 149.824219 186.824219 C 149.824219 186.824219 148.941406 186.566406 148.667969 186.59375 C 148.382812 186.617188 148.941406 183.980469 146.308594 183.890625 C 143.664062 183.796875 144.957031 186.566406 144.957031 186.566406 C 144.957031 186.566406 142.414062 185.78125 141.738281 187.285156 C 141.066406 188.785156 143.113281 189.960938 143.113281 189.960938 C 143.113281 189.960938 141.097656 190.289062 141.738281 191.789062 C 142.0625 192.546875 142.496094 192.929688 142.847656 193.121094 C 139.242188 193.375 137.019531 193.734375 137.019531 193.734375 C 153.617188 193.257812 171.933594 196.460938 180.929688 201.21875"/><path fill="#1B1B1B" d="M 137.144531 203.402344 C 144.023438 203.503906 150.160156 203.914062 155.609375 204.613281 C 155.578125 204.304688 155.570312 203.945312 155.601562 203.644531 C 149.582031 203.085938 143.421875 203.027344 137.144531 203.402344"/><g clip-path="url(#b)"><path fill="#1B1B1B" d="M 164.3125 197.519531 C 155.527344 195.710938 146.359375 194.910156 136.878906 195.4375 C 146.734375 195.785156 155.328125 196.746094 162.457031 198.3125 C 162.878906 198.054688 163.539062 197.722656 164.3125 197.519531"/></g><path fill="#1B1B1B" d="M 159.363281 199.015625 C 152.183594 197.761719 144.734375 197.3125 137.0625 197.539062 C 145.257812 197.921875 152.34375 198.738281 158.421875 199.949219 C 158.664062 199.664062 159.003906 199.296875 159.363281 199.015625"/><g clip-path="url(#c)"><path fill="#1B1B1B" d="M 156.203125 201.269531 C 149.941406 200.425781 143.515625 200.175781 136.9375 200.410156 C 144.042969 200.691406 150.320312 201.300781 155.84375 202.21875 C 155.953125 201.886719 156.0625 201.550781 156.203125 201.269531"/></g><path fill="#1B1B1B" d="M 211.957031 212.765625 C 212.355469 213.921875 212.164062 214.941406 212.164062 214.941406 C 218.09375 213.339844 226.011719 212.261719 235.40625 212.429688 C 229.828125 210.996094 221.902344 210.671875 211.957031 212.765625"/><path fill="#1B1B1B" d="M 214.257812 217.003906 C 214.347656 217.359375 214.324219 217.601562 214.324219 217.601562 C 214.324219 217.601562 215.234375 217.835938 215.957031 218.402344 C 220.652344 217.253906 226.371094 216.425781 232.90625 216.242188 C 228.371094 215.285156 222.078125 215.242188 214.257812 217.003906"/><path fill="#1B1B1B" d="M 235.214844 209.070312 C 228.929688 207.214844 219.667969 206.65625 207.90625 209.285156 C 208.179688 209.84375 208.253906 210.351562 208.253906 210.351562 C 208.253906 210.351562 209.457031 210.535156 210.472656 211.070312 C 216.542969 209.46875 225.003906 208.5 235.214844 209.070312"/><path fill="#1B1B1B" d="M 216.082031 226.207031 C 219.835938 225.347656 224.203125 224.746094 229.078125 224.59375 C 225.703125 223.804688 221.25 223.636719 215.839844 224.605469 C 215.941406 225.054688 216.066406 225.6875 216.082031 226.207031"/><path fill="#1B1B1B" d="M 216.667969 220.707031 C 216.558594 221.324219 216.375 222 216.191406 222.578125 C 220.417969 221.417969 225.578125 220.574219 231.480469 220.390625 C 227.789062 219.523438 222.792969 219.40625 216.667969 220.707031"/><g clip-path="url(#d)"><path fill="#1B1B1B" d="M 237.058594 203.886719 C 221 198.789062 199.179688 199.640625 176.785156 209.933594 C 176.078125 209.734375 175.367188 209.542969 174.65625 209.355469 C 175.566406 207.730469 174.679688 206.328125 172.882812 206.539062 C 174.109375 205.382812 173.484375 203.894531 172.015625 204.1875 C 174.285156 201.308594 170.582031 198.789062 168.839844 200.601562 C 167.707031 198.914062 166.125 199.539062 166.207031 200.601562 C 166.207031 200.601562 165.113281 198.804688 163.574219 199.257812 C 162.023438 199.714844 162.128906 200.742188 162.128906 200.742188 C 161.15625 198.4375 159.195312 200.433594 159.65625 201.160156 C 157.636719 200.84375 156.335938 202.878906 157.429688 204.847656 C 157.429688 204.847656 156.601562 204.804688 156.601562 205.589844 C 156.601562 205.804688 156.671875 205.976562 156.769531 206.121094 C 150.210938 205.4375 143.566406 205.269531 136.839844 205.5625 C 136.996094 206.5 137.179688 207.425781 137.386719 208.34375 L 137.386719 208.351562 C 137.40625 208.425781 137.429688 208.5 137.445312 208.574219 C 137.488281 208.777344 137.539062 208.976562 137.589844 209.175781 C 143.082031 231.621094 163.324219 248.28125 187.441406 248.28125 C 200.871094 248.28125 213.089844 243.117188 222.234375 234.671875 C 221.542969 233.949219 220.734375 233.164062 220.078125 232.722656 C 218.816406 231.703125 217.550781 230.71875 216.28125 229.761719 C 219.503906 229.152344 223.105469 228.738281 227.046875 228.617188 C 223.832031 227.851562 219.636719 227.671875 214.566406 228.492188 C 210.324219 225.40625 206.019531 222.65625 201.664062 220.230469 C 202.171875 220.421875 202.707031 220.625 203.269531 220.847656 C 207.320312 222.449219 211.015625 224.878906 213.023438 226.324219 C 213.214844 226.128906 213.421875 225.878906 213.613281 225.554688 C 214.292969 224.4375 213.15625 224.496094 213.15625 224.496094 C 213.15625 224.496094 216.382812 222.601562 215.140625 219.964844 C 214.011719 217.589844 211.757812 218.300781 211.335938 218.460938 C 211.292969 218.480469 211.265625 218.488281 211.265625 218.488281 C 211.265625 218.488281 211.289062 218.476562 211.335938 218.460938 C 211.59375 218.351562 212.492188 217.886719 212.414062 216.777344 C 212.324219 215.484375 209.738281 215.351562 209.738281 215.351562 C 209.738281 215.351562 211.304688 215.167969 210.664062 213.171875 C 210.015625 211.1875 207.105469 212.113281 207.105469 212.113281 C 207.105469 212.113281 207.613281 209.667969 204.703125 208.507812 C 201.792969 207.359375 200.785156 210.269531 200.785156 210.269531 C 200.785156 210.269531 200.785156 209.160156 199.351562 209.203125 C 197.917969 209.25 197.5 211.097656 197.5 211.097656 C 197.5 211.097656 196.441406 209.25 195.152344 209.945312 C 193.859375 210.636719 194.132812 212.070312 194.132812 212.070312 C 194.132812 212.070312 192.332031 211.878906 191.414062 213.589844 C 191.164062 214.058594 191.082031 214.550781 191.09375 215.019531 C 190.328125 214.691406 189.5625 214.367188 188.792969 214.054688 C 189.398438 213.660156 190.023438 213.28125 190.664062 212.914062 C 190.859375 212.457031 191.117188 212.023438 191.5 211.761719 C 192.609375 210.996094 193.066406 210.980469 193.066406 210.980469 C 193.066406 210.980469 192.949219 209.777344 194.292969 209.085938 C 195.625 208.382812 196.917969 209.21875 196.917969 209.21875 C 196.917969 209.21875 197.726562 208.160156 198.792969 207.992188 C 199.851562 207.832031 200.269531 208.199219 200.269531 208.199219 C 200.269531 208.199219 201.71875 207.089844 203.246094 207.234375 C 203.902344 207.292969 204.511719 207.351562 205.070312 207.457031 C 214.90625 205.121094 226.0625 204.746094 236 206.625 C 219.273438 200.222656 196.773438 206.382812 184.777344 212.511719 C 183.75 212.136719 182.71875 211.777344 181.683594 211.4375 C 197.972656 202.113281 220.222656 199.601562 237.058594 203.886719"/></g><path fill="#1B1B1B" d="M 185.757812 189.554688 L 185.757812 194.945312 L 189.238281 194.945312 L 189.238281 189.554688 L 185.757812 189.554688"/><path fill="#1B1B1B" d="M 151.269531 186.5 L 151.269531 190.488281 L 153.84375 190.488281 L 153.84375 186.5 L 151.269531 186.5"/><path fill="#1B1B1B" d="M 157.871094 186.5 L 157.871094 190.488281 L 160.445312 190.488281 L 160.445312 186.5 L 157.871094 186.5"/><path fill="#7ED957" d="M 181.269531 247.90625 C 180.703125 247.839844 180.128906 247.765625 179.5625 247.671875 C 180.710938 240.855469 183.996094 236.308594 189.972656 232.320312 C 189.972656 232.320312 186.570312 233.070312 182.585938 237.503906 C 181.9375 238.226562 181.378906 239.011719 180.902344 239.820312 C 180.828125 237.351562 181.203125 233.621094 183.753906 231.285156 C 187.839844 227.558594 192.207031 227.867188 195.132812 227.105469 C 198.058594 226.355469 199.277344 225.371094 199.277344 225.371094 C 199.277344 225.371094 200.300781 232.269531 196.167969 237.84375 C 192.824219 242.367188 185.046875 242.5 182.210938 242.382812 C 181.710938 243.992188 181.386719 245.804688 181.269531 247.90625 Z M 176.460938 236.835938 C 166.316406 236.625 162.589844 228.449219 164.648438 218.488281 C 168.515625 222.71875 182.894531 222.585938 178.996094 235.222656 C 176.476562 231.003906 170.441406 225.472656 167.03125 223.820312 C 170.425781 226.957031 175.984375 232.621094 177.996094 236.808594 C 179.46875 239.261719 179.5625 242.640625 179.5625 242.640625 L 176.460938 236.835938"/><g clip-path="url(#e)"><path fill="#FFF" d="M 161.980469 215.066406 C 156.976562 213.949219 151.785156 213.132812 146.417969 212.65625 C 151.570312 213.507812 156.6875 214.683594 161.753906 216.183594 Z M 190.566406 225.546875 C 182.578125 221.351562 173.949219 217.996094 164.679688 215.699219 L 165.023438 216.078125 C 165.730469 216.851562 167.066406 217.496094 168.015625 217.929688 C 169.625 218.65625 171.277344 219.28125 172.882812 220.015625 C 173.050781 220.097656 173.226562 220.171875 173.394531 220.257812 C 177.984375 222.117188 182.503906 224.261719 186.949219 226.699219 C 187.890625 226.28125 188.882812 225.957031 189.933594 225.695312 C 190.140625 225.648438 190.355469 225.597656 190.566406 225.546875 Z M 161.171875 219.480469 C 157.085938 218.296875 152.894531 217.285156 148.566406 216.476562 C 152.769531 217.585938 156.9375 218.894531 161.070312 220.40625 C 161.105469 220.097656 161.136719 219.789062 161.171875 219.480469 Z M 183.78125 228.542969 C 182.789062 228.023438 181.789062 227.523438 180.777344 227.03125 C 181.144531 227.941406 181.371094 228.882812 181.460938 229.84375 C 181.628906 229.933594 181.804688 230.035156 181.972656 230.136719 C 182.144531 229.933594 182.339844 229.75 182.539062 229.566406 C 182.9375 229.199219 183.355469 228.859375 183.78125 228.542969 Z M 171.832031 238.417969 C 173.292969 239.328125 174.726562 240.273438 176.144531 241.273438 L 174.886719 238.910156 C 173.84375 238.828125 172.824219 238.667969 171.832031 238.417969 Z M 163.863281 233.097656 C 160.636719 231.84375 157.285156 230.742188 153.792969 229.808594 C 157.710938 231.203125 161.515625 232.820312 165.191406 234.691406 C 165.039062 234.539062 164.90625 234.390625 164.765625 234.230469 C 164.441406 233.863281 164.140625 233.488281 163.863281 233.097656 Z M 161.054688 224.902344 C 158.070312 223.910156 155.019531 223.027344 151.882812 222.269531 C 155.011719 223.269531 158.09375 224.402344 161.128906 225.671875 C 161.105469 225.421875 161.070312 225.164062 161.054688 224.902344 Z M 198.144531 223.761719 C 182.855469 215.367188 165.722656 210.003906 146.300781 208.902344 C 162.855469 211.070312 178.945312 216.234375 194.351562 224.902344 C 194.742188 224.835938 195.125 224.761719 195.5 224.671875 C 196.191406 224.488281 197.261719 224.160156 198.144531 223.761719 Z M 189.523438 248.238281 C 188.832031 248.265625 188.140625 248.28125 187.441406 248.28125 C 186.554688 248.28125 185.679688 248.253906 184.8125 248.207031 C 184.347656 247.789062 183.878906 247.378906 183.414062 246.972656 C 183.503906 246.269531 183.621094 245.585938 183.78125 244.902344 C 184.261719 244.902344 184.753906 244.886719 185.253906 244.859375 C 186.714844 245.945312 188.140625 247.070312 189.523438 248.238281 Z M 199.402344 246.871094 C 197.976562 247.214844 196.515625 247.496094 195.050781 247.714844 C 193.675781 246.445312 192.292969 245.210938 190.898438 244.027344 C 192.101562 243.710938 193.257812 243.292969 194.351562 242.757812 C 196.066406 244.078125 197.75 245.453125 199.402344 246.871094 Z M 207.394531 244.25 C 206.171875 244.769531 204.921875 245.242188 203.644531 245.660156 C 201.628906 243.890625 199.585938 242.199219 197.507812 240.582031 C 197.953125 240.171875 198.351562 239.722656 198.710938 239.230469 C 198.976562 238.878906 199.21875 238.511719 199.460938 238.144531 C 202.171875 240.070312 204.8125 242.117188 207.394531 244.25 Z M 213.421875 241.214844 C 212.390625 241.832031 211.332031 242.398438 210.246094 242.941406 C 207.179688 240.289062 204.035156 237.800781 200.84375 235.492188 C 201.277344 234.472656 201.621094 233.421875 201.886719 232.347656 C 205.929688 235.082031 209.773438 238.050781 213.421875 241.214844 Z M 218.71875 237.636719 C 217.785156 238.359375 216.824219 239.046875 215.839844 239.703125 C 211.414062 236.058594 206.921875 232.753906 202.363281 229.769531 C 202.371094 229.652344 202.386719 229.535156 202.402344 229.410156 C 202.503906 228.449219 202.5625 227.347656 202.535156 226.289062 C 208.179688 229.675781 213.574219 233.480469 218.71875 237.636719" fill-rule="evenodd"/></g><g clip-path="url(#f)"><path fill="#FFBD59" d="M 218.367188 180.386719 L 214.140625 180.375 L 215.757812 182.085938 C 215.757812 182.085938 216.542969 181.210938 217.648438 181.027344 C 218.09375 180.953125 218.25 180.695312 218.367188 180.386719 Z M 184.523438 161.6875 L 185.179688 166.5 C 184.648438 166.617188 184.121094 166.761719 183.605469 166.925781 L 182.371094 162.289062 C 183.070312 162.054688 183.789062 161.855469 184.523438 161.6875 Z M 183.863281 156.855469 L 184.339844 160.351562 C 183.539062 160.476562 182.753906 160.652344 181.988281 160.863281 L 181.097656 157.484375 C 181.996094 157.234375 182.921875 157.015625 183.863281 156.855469 Z M 178.136719 146.371094 C 179.519531 146.121094 180.929688 145.917969 182.347656 145.777344 L 183.695312 155.648438 C 182.6875 155.765625 181.703125 155.929688 180.738281 156.15625 Z M 179.660156 163.421875 L 181.496094 167.796875 C 181.011719 168.039062 180.535156 168.3125 180.085938 168.605469 L 177.734375 164.515625 C 178.363281 164.125 179.003906 163.757812 179.660156 163.421875 Z M 177.6875 158.699219 L 179.027344 161.914062 C 178.285156 162.238281 177.5625 162.597656 176.867188 163.007812 L 175.125 159.96875 C 175.953125 159.511719 176.800781 159.085938 177.6875 158.699219 Z M 168.824219 149.015625 C 170.191406 148.480469 171.589844 148.003906 173.015625 147.589844 L 177.070312 157.242188 C 176.101562 157.601562 175.160156 158.007812 174.25 158.460938 Z M 175.394531 166.269531 L 178.277344 169.988281 C 177.867188 170.347656 177.488281 170.730469 177.128906 171.140625 L 173.800781 167.804688 C 174.300781 167.261719 174.835938 166.753906 175.394531 166.269531 Z M 172.074219 161.980469 L 174.242188 164.792969 C 173.609375 165.300781 173 165.84375 172.425781 166.417969 L 169.867188 163.855469 C 170.566406 163.191406 171.300781 162.5625 172.074219 161.980469 Z M 159.710938 153.660156 C 161.03125 152.8125 162.398438 152.027344 163.796875 151.292969 L 170.882812 160.445312 C 170.015625 161.046875 169.183594 161.6875 168.398438 162.378906 Z M 171.957031 170.082031 L 175.734375 172.945312 C 175.433594 173.394531 175.160156 173.871094 174.910156 174.351562 L 170.800781 171.96875 C 171.152344 171.316406 171.542969 170.683594 171.957031 170.082031 Z M 167.355469 166.578125 L 170.339844 168.847656 C 169.851562 169.515625 169.40625 170.207031 169 170.925781 L 165.65625 168.980469 C 166.175781 168.152344 166.75 167.34375 167.355469 166.578125 Z M 151.144531 160.570312 C 152.351562 159.367188 153.617188 158.226562 154.9375 157.140625 L 165.582031 165.226562 C 164.882812 166.050781 164.230469 166.910156 163.640625 167.8125 Z M 169.601562 174.644531 L 174.035156 176.457031 C 173.867188 176.964844 173.726562 177.492188 173.609375 178.023438 L 168.964844 176.773438 C 169.140625 176.046875 169.351562 175.335938 169.601562 174.644531 Z M 163.890625 172.308594 L 167.648438 173.84375 C 167.367188 174.621094 167.125 175.414062 166.933594 176.230469 L 162.847656 175.128906 C 163.140625 174.160156 163.488281 173.226562 163.890625 172.308594 Z M 143.722656 169.964844 C 144.707031 168.378906 145.773438 166.84375 146.917969 165.375 L 161.671875 171.398438 C 161.222656 172.402344 160.839844 173.433594 160.53125 174.503906 Z M 138.347656 181.871094 C 138.945312 179.902344 139.664062 177.992188 140.480469 176.128906 L 153.226562 177.75 L 150.058594 181.886719 Z M 236.074219 180.410156 C 236.730469 182.347656 237.273438 184.332031 237.691406 186.367188 L 232.628906 185.726562 C 231.78125 184.714844 230.53125 184.632812 230.53125 184.632812 C 230.53125 184.632812 230.90625 184.398438 230.253906 183.378906 C 229.605469 182.371094 228.039062 181.953125 228.039062 181.953125 C 228.039062 181.953125 228.039062 181.121094 227.679688 180.394531 Z M 230.5625 169.023438 C 231.582031 170.597656 232.515625 172.234375 233.363281 173.917969 L 207.1875 177.507812 L 202.679688 177.398438 C 202.59375 177.097656 202.511719 176.8125 202.417969 176.523438 Z M 223.210938 160.0625 C 224.445312 161.261719 225.621094 162.515625 226.71875 163.832031 L 201.554688 174.410156 C 201.3125 173.929688 201.035156 173.460938 200.746094 173 Z M 204.246094 167.394531 L 199.359375 171.191406 C 198.992188 170.789062 198.609375 170.398438 198.210938 170.039062 L 202.46875 165.792969 C 203.09375 166.292969 203.6875 166.828125 204.246094 167.394531 Z M 208.011719 164.472656 L 204.253906 167.394531 C 203.71875 166.792969 203.164062 166.226562 202.570312 165.683594 L 205.796875 162.464844 C 206.570312 163.097656 207.3125 163.765625 208.011719 164.472656 Z M 214.832031 153.445312 C 216.175781 154.296875 217.464844 155.207031 218.71875 156.164062 L 208.113281 164.398438 C 207.429688 163.664062 206.714844 162.972656 205.953125 162.3125 Z M 199.902344 164.03125 L 196.410156 168.644531 C 195.953125 168.347656 195.484375 168.070312 195 167.820312 L 197.808594 162.972656 C 198.535156 163.289062 199.226562 163.640625 199.902344 164.03125 Z M 202.71875 160.320312 L 200.109375 163.765625 C 199.453125 163.324219 198.769531 162.914062 198.058594 162.546875 L 200.136719 158.953125 C 201.027344 159.367188 201.886719 159.820312 202.71875 160.320312 Z M 205.921875 148.957031 C 207.304688 149.5 208.664062 150.089844 209.988281 150.742188 L 202.9375 160.042969 C 202.113281 159.503906 201.253906 159.011719 200.359375 158.558594 Z M 194.933594 161.945312 L 192.898438 166.945312 C 192.382812 166.777344 191.859375 166.636719 191.324219 166.519531 L 192.691406 161.453125 C 193.449219 161.578125 194.199219 161.746094 194.933594 161.945312 Z M 196.691406 157.640625 L 195.199219 161.304688 C 194.449219 161.046875 193.691406 160.820312 192.90625 160.644531 L 193.898438 156.949219 C 194.851562 157.132812 195.785156 157.367188 196.691406 157.640625 Z M 196.75 146.371094 C 198.160156 146.628906 199.542969 146.945312 200.902344 147.3125 L 196.917969 157.082031 C 196 156.757812 195.058594 156.480469 194.089844 156.25 Z M 189.707031 161.179688 L 189.066406 166.21875 C 188.78125 166.203125 188.5 166.191406 188.214844 166.191406 C 187.957031 166.191406 187.699219 166.203125 187.441406 166.21875 L 187.449219 161.246094 C 188.03125 161.203125 188.625 161.179688 189.214844 161.179688 C 189.382812 161.179688 189.539062 161.179688 189.707031 161.179688 Z M 190.296875 156.5 L 189.832031 160.152344 C 189.191406 160.101562 188.539062 160.070312 187.882812 160.070312 C 187.738281 160.070312 187.589844 160.070312 187.449219 160.078125 L 187.457031 156.472656 C 187.839844 156.457031 188.230469 156.449219 188.625 156.449219 C 189.183594 156.449219 189.742188 156.464844 190.296875 156.5 Z M 187.464844 145.527344 C 188.882812 145.527344 190.28125 145.585938 191.65625 145.703125 L 190.40625 155.605469 C 189.441406 155.503906 188.457031 155.445312 187.457031 155.4375 Z M 173.308594 180.292969 L 170.316406 179.910156 L 171.75 181.910156 L 173.308594 181.921875 C 173.292969 181.660156 173.285156 181.402344 173.285156 181.136719 C 173.285156 180.851562 173.292969 180.570312 173.308594 180.292969 Z M 188.214844 168.136719 C 194.042969 168.136719 198.96875 171.976562 200.621094 177.265625 L 190.625 177.265625 L 184.988281 183.429688 L 183.835938 182.597656 C 183.835938 182.597656 184.070312 181.878906 183.03125 181.394531 C 182.789062 181.285156 182.53125 181.234375 182.261719 181.21875 C 182.554688 177.074219 186.003906 173.800781 190.214844 173.800781 C 191.148438 173.800781 192.050781 173.96875 192.882812 174.261719 C 191.742188 173.667969 190.449219 173.328125 189.082031 173.328125 C 184.589844 173.328125 180.945312 176.949219 180.894531 181.4375 C 180.6875 181.503906 180.5625 181.5625 180.5625 181.5625 C 180.5625 181.5625 180.277344 180.542969 180.003906 180.21875 C 179.902344 180.101562 179.738281 179.917969 179.503906 179.757812 C 180.335938 175.085938 184.414062 171.550781 189.308594 171.550781 C 192.53125 171.550781 195.402344 173.085938 197.226562 175.464844 L 197.234375 175.472656 C 195.359375 172.542969 192.082031 170.605469 188.347656 170.605469 C 183.121094 170.605469 178.785156 174.421875 177.960938 179.417969 C 177.84375 179.433594 177.726562 179.46875 177.601562 179.5 C 176.269531 179.917969 175.828125 181.929688 175.828125 181.929688 C 175.828125 181.929688 175.644531 181.929688 175.25 181.921875 C 175.234375 181.660156 175.226562 181.402344 175.226562 181.136719 C 175.226562 173.960938 181.039062 168.136719 188.214844 168.136719" fill-rule="evenodd"/></g><path fill="#E6E6E6" d="M 145.382812 184.941406 C 146.632812 185.089844 147 186.535156 146.714844 187.570312 C 145.699219 186.582031 145.324219 186.609375 145.382812 184.941406 Z M 168.164062 190.488281 L 168.164062 186.5 L 168.964844 186.5 L 168.964844 189.894531 L 170.257812 189.894531 L 170.257812 190.488281 Z M 181.453125 182.914062 C 182.164062 183.773438 181.519531 184.921875 180.710938 185.417969 C 180.660156 184.164062 180.402344 183.957031 181.453125 182.914062 Z M 177.6875 182.027344 C 178.777344 182.230469 179.027344 183.523438 178.71875 184.421875 C 177.878906 183.496094 177.542969 183.496094 177.6875 182.027344 Z M 175.050781 184.515625 C 176.027344 183.980469 177.035156 184.832031 177.363281 185.714844 C 176.121094 185.53125 175.867188 185.742188 175.050781 184.515625 Z M 173.507812 187.617188 C 174.292969 186.835938 175.5 187.359375 176.0625 188.121094 C 174.828125 188.285156 174.636719 188.570312 173.507812 187.617188 Z M 164.105469 190.488281 L 164.105469 186.5 L 164.882812 186.5 L 164.882812 189.894531 L 166.199219 189.894531 L 166.199219 190.488281 Z M 227.578125 184.257812 C 226.488281 184.457031 226.238281 185.75 226.546875 186.644531 C 227.386719 185.714844 227.71875 185.726562 227.578125 184.257812 Z M 230.214844 186.734375 C 229.238281 186.207031 228.230469 187.058594 227.90625 187.945312 C 229.144531 187.753906 229.394531 187.96875 230.214844 186.734375 Z M 224.476562 181.710938 C 223.683594 182.496094 224.195312 183.707031 224.945312 184.28125 C 225.128906 183.039062 225.410156 182.855469 224.476562 181.710938 Z M 231.398438 190.839844 C 230.457031 189.679688 228.78125 190.222656 227.929688 191.15625 C 229.554688 191.554688 229.761719 191.949219 231.398438 190.839844 Z M 222.359375 183.90625 C 221.703125 185.367188 223.027344 186.726562 224.335938 187.101562 C 223.9375 185.339844 224.210938 184.949219 222.359375 183.90625 Z M 204.96875 210.4375 C 206.253906 211.164062 206.011719 212.890625 205.246094 213.882812 C 204.585938 212.355469 204.171875 212.222656 204.96875 210.4375 Z M 196.34375 211.738281 C 197.585938 211.886719 197.960938 213.332031 197.675781 214.355469 C 196.660156 213.375 196.285156 213.398438 196.34375 211.738281 Z M 193.75 213.789062 C 194.527344 212.988281 195.734375 213.5 196.308594 214.25 C 195.074219 214.441406 194.890625 214.714844 193.75 213.789062 Z M 209.039062 213.941406 C 209.121094 215.050781 207.9375 215.625 206.996094 215.558594 C 207.671875 214.507812 207.582031 214.183594 209.039062 213.941406 Z M 160.796875 201.199219 C 162.046875 201.351562 162.414062 202.792969 162.140625 203.828125 C 161.121094 202.835938 160.746094 202.863281 160.796875 201.199219 Z M 171.757812 202.070312 C 171.84375 203.179688 170.660156 203.753906 169.714844 203.6875 C 170.390625 202.636719 170.300781 202.320312 171.757812 202.070312 Z M 172.167969 205.003906 C 172.257812 206.113281 171.074219 206.691406 170.125 206.625 C 170.808594 205.574219 170.714844 205.246094 172.167969 205.003906 Z M 158.203125 203.253906 C 158.980469 202.453125 160.195312 202.960938 160.769531 203.710938 C 159.53125 203.902344 159.355469 204.179688 158.203125 203.253906 Z M 143.757812 188.386719 C 144.53125 187.585938 145.75 188.09375 146.324219 188.84375 C 145.082031 189.035156 144.90625 189.3125 143.757812 188.386719" fill-rule="evenodd"/><path fill="#FFF" d="M 172.132812 186.015625 L 167.832031 180.453125 L 172.132812 187.167969 L 172.59375 186.199219 L 172.132812 186.015625" fill-rule="evenodd"/><path fill="#1B1B1B" d="M 117.351562 165.921875 C 116.523438 165.921875 115.851562 166.59375 115.851562 167.421875 C 115.851562 168.25 116.523438 168.921875 117.351562 168.921875 C 118.179688 168.921875 118.851562 168.25 118.851562 167.421875 C 118.851562 166.59375 118.179688 165.921875 117.351562 165.921875"/><path fill="#1B1B1B" d="M 257.96875 165.921875 C 257.136719 165.921875 256.46875 166.59375 256.46875 167.421875 C 256.46875 168.25 257.136719 168.921875 257.96875 168.921875 C 258.796875 168.921875 259.46875 168.25 259.46875 167.421875 C 259.46875 166.59375 258.796875 165.921875 257.96875 165.921875"/><path fill="#1B1B1B" d="M 113.992188 177.417969 C 113.164062 177.417969 112.492188 178.085938 112.492188 178.917969 C 112.492188 179.746094 113.164062 180.417969 113.992188 180.417969 C 114.820312 180.417969 115.492188 179.746094 115.492188 178.917969 C 115.492188 178.085938 114.820312 177.417969 113.992188 177.417969"/><path fill="#1B1B1B" d="M 261.324219 177.417969 C 260.496094 177.417969 259.824219 178.085938 259.824219 178.917969 C 259.824219 179.746094 260.496094 180.417969 261.324219 180.417969 C 262.152344 180.417969 262.824219 179.746094 262.824219 178.917969 C 262.824219 178.085938 262.152344 177.417969 261.324219 177.417969"/><path fill="#1B1B1B" d="M 111.980469 189.3125 C 111.152344 189.3125 110.480469 189.984375 110.480469 190.8125 C 110.480469 191.640625 111.152344 192.3125 111.980469 192.3125 C 112.808594 192.3125 113.480469 191.640625 113.480469 190.8125 C 113.480469 189.984375 112.808594 189.3125 111.980469 189.3125"/><path fill="#1B1B1B" d="M 263.335938 189.3125 C 262.507812 189.3125 261.835938 189.984375 261.835938 190.8125 C 261.835938 191.640625 262.507812 192.3125 263.335938 192.3125 C 264.164062 192.3125 264.835938 191.640625 264.835938 190.8125 C 264.835938 189.984375 264.164062 189.3125 263.335938 189.3125"/><path fill="#1B1B1B" d="M 112.652344 201.8125 C 111.824219 201.8125 111.152344 202.484375 111.152344 203.3125 C 111.152344 204.140625 111.824219 204.8125 112.652344 204.8125 C 113.480469 204.8125 114.152344 204.140625 114.152344 203.3125 C 114.152344 202.484375 113.480469 201.8125 112.652344 201.8125"/><path fill="#1B1B1B" d="M 262.664062 201.8125 C 261.835938 201.8125 261.164062 202.484375 261.164062 203.3125 C 261.164062 204.140625 261.835938 204.8125 262.664062 204.8125 C 263.496094 204.8125 264.164062 204.140625 264.164062 203.3125 C 264.164062 202.484375 263.496094 201.8125 262.664062 201.8125"/><g><g><g><path d="M 9.53125 -2.34375 C 10.4375 -1.394531 10.890625 -0.328125 10.890625 0.859375 C 10.898438 2.054688 10.460938 3.078125 9.578125 3.921875 C 8.679688 4.773438 7.632812 5.171875 6.4375 5.109375 C 5.238281 5.046875 4.1875 4.539062 3.28125 3.59375 C 2.382812 2.644531 1.929688 1.570312 1.921875 0.375 C 1.921875 -0.820312 2.375 -1.847656 3.28125 -2.703125 C 4.175781 -3.546875 5.21875 -3.929688 6.40625 -3.859375 C 7.59375 -3.796875 8.632812 -3.289062 9.53125 -2.34375 Z M 8.25 -1.09375 C 7.789062 -1.570312 7.222656 -1.816406 6.546875 -1.828125 C 5.878906 -1.835938 5.285156 -1.597656 4.765625 -1.109375 C 4.253906 -0.628906 3.984375 -0.0507812 3.953125 0.625 C 3.929688 1.3125 4.144531 1.890625 4.59375 2.359375 C 5.039062 2.835938 5.597656 3.070312 6.265625 3.0625 C 6.941406 3.0625 7.535156 2.816406 8.046875 2.328125 C 8.566406 1.847656 8.84375 1.273438 8.875 0.609375 C 8.90625 -0.0546875 8.695312 -0.625 8.25 -1.09375 Z M 8.25 -1.09375" transform="translate(126.76 250.474)"/></g></g></g><g><g><g><path d="M 6.859375 5.28125 L 5.359375 4.125 L 5.453125 -2.390625 L 2.265625 1.75 L 0.671875 0.515625 L 5.828125 -6.203125 L 7.34375 -5.046875 L 7.25 1.5 L 10.4375 -2.65625 L 12.015625 -1.4375 Z M 6.859375 5.28125" transform="translate(135.453 259.328)"/></g></g></g><g><g><g><path d="M 9.8125 -2.265625 L 5.921875 -4.4375 L 5.109375 -2.984375 L 8.625 -1.03125 L 7.796875 0.46875 L 4.28125 -1.484375 L 3.453125 0 L 7.46875 2.234375 L 6.640625 3.703125 L 0.734375 0.40625 L 4.859375 -6.984375 L 10.640625 -3.75 Z M 9.8125 -2.265625" transform="translate(145.207 266.522)"/></g></g></g><g><g><g><path d="M 4.734375 -1.3125 L 1.796875 -2.546875 L 2.3125 -3.75 L 5.25 -2.515625 Z M 4.734375 -1.3125" transform="translate(154.57 271.479)"/></g></g></g><g><g><g><path d="M 6.359375 -7.046875 C 7.578125 -6.679688 8.554688 -6.066406 9.296875 -5.203125 L 8.046875 -3.8125 C 7.691406 -4.1875 7.289062 -4.523438 6.84375 -4.828125 C 6.40625 -5.128906 6.023438 -5.332031 5.703125 -5.4375 C 5.097656 -5.613281 4.738281 -5.503906 4.625 -5.109375 C 4.550781 -4.859375 4.640625 -4.609375 4.890625 -4.359375 C 5.140625 -4.117188 5.453125 -3.878906 5.828125 -3.640625 C 6.210938 -3.398438 6.59375 -3.132812 6.96875 -2.84375 C 7.351562 -2.5625 7.640625 -2.195312 7.828125 -1.75 C 8.015625 -1.3125 8.03125 -0.820312 7.875 -0.28125 C 7.644531 0.488281 7.15625 1.003906 6.40625 1.265625 C 5.664062 1.523438 4.828125 1.515625 3.890625 1.234375 C 3.222656 1.035156 2.59375 0.722656 2 0.296875 C 1.40625 -0.128906 0.921875 -0.617188 0.546875 -1.171875 L 1.828125 -2.515625 C 2.140625 -2.035156 2.535156 -1.601562 3.015625 -1.21875 C 3.503906 -0.832031 3.960938 -0.578125 4.390625 -0.453125 C 4.734375 -0.347656 5.015625 -0.328125 5.234375 -0.390625 C 5.453125 -0.453125 5.597656 -0.597656 5.671875 -0.828125 C 5.734375 -1.046875 5.679688 -1.265625 5.515625 -1.484375 C 5.347656 -1.703125 5.117188 -1.894531 4.828125 -2.0625 C 4.535156 -2.226562 4.21875 -2.425781 3.875 -2.65625 C 3.539062 -2.894531 3.234375 -3.132812 2.953125 -3.375 C 2.679688 -3.625 2.488281 -3.9375 2.375 -4.3125 C 2.257812 -4.695312 2.265625 -5.113281 2.390625 -5.5625 C 2.609375 -6.300781 3.082031 -6.800781 3.8125 -7.0625 C 4.539062 -7.332031 5.390625 -7.328125 6.359375 -7.046875 Z M 6.359375 -7.046875" transform="translate(161.005 274.134)"/></g></g></g><g><g><g><path d="M 8.28125 -5.5 L 5.765625 -5.90625 L 4.703125 0.75 L 2.578125 0.40625 L 3.640625 -6.25 L 1.140625 -6.640625 L 1.421875 -8.359375 L 8.5625 -7.21875 Z M 8.28125 -5.5" transform="translate(170.948 276.895)"/></g></g></g><g><g><g><path d="M 5 -8.453125 C 6.3125 -8.429688 7.394531 -8.003906 8.25 -7.171875 C 9.101562 -6.335938 9.523438 -5.3125 9.515625 -4.09375 C 9.492188 -2.851562 9.039062 -1.828125 8.15625 -1.015625 C 7.269531 -0.203125 6.171875 0.191406 4.859375 0.171875 C 3.554688 0.148438 2.476562 -0.273438 1.625 -1.109375 C 0.769531 -1.953125 0.351562 -3 0.375 -4.25 C 0.382812 -5.476562 0.832031 -6.488281 1.71875 -7.28125 C 2.601562 -8.082031 3.695312 -8.472656 5 -8.453125 Z M 5 -6.65625 C 4.332031 -6.664062 3.757812 -6.429688 3.28125 -5.953125 C 2.8125 -5.484375 2.566406 -4.894531 2.546875 -4.1875 C 2.535156 -3.476562 2.765625 -2.875 3.234375 -2.375 C 3.703125 -1.882812 4.257812 -1.632812 4.90625 -1.625 C 5.5625 -1.613281 6.117188 -1.847656 6.578125 -2.328125 C 7.046875 -2.804688 7.285156 -3.398438 7.296875 -4.109375 C 7.316406 -4.816406 7.097656 -5.414062 6.640625 -5.90625 C 6.191406 -6.394531 5.644531 -6.644531 5 -6.65625 Z M 5 -6.65625" transform="translate(180.83 278.376)"/></g></g></g><g><g><g><path d="M -0.265625 -8.5 L 3.375 -8.984375 C 4.457031 -9.128906 5.328125 -8.988281 5.984375 -8.5625 C 6.648438 -8.132812 7.046875 -7.453125 7.171875 -6.515625 C 7.296875 -5.535156 7.097656 -4.734375 6.578125 -4.109375 C 6.054688 -3.484375 5.253906 -3.097656 4.171875 -2.953125 L 2.65625 -2.75 L 2.96875 -0.390625 L 0.84375 -0.109375 Z M 2.078125 -7.09375 L 2.4375 -4.4375 L 3.859375 -4.625 C 4.328125 -4.6875 4.671875 -4.847656 4.890625 -5.109375 C 5.117188 -5.367188 5.203125 -5.71875 5.140625 -6.15625 C 5.085938 -6.59375 4.914062 -6.90625 4.625 -7.09375 C 4.34375 -7.28125 3.96875 -7.34375 3.5 -7.28125 Z M 2.078125 -7.09375" transform="translate(193.19 278.332)"/></g></g></g><g><g><g><path d="M 3.015625 -3.890625 L -0.078125 -3.109375 L -0.390625 -4.390625 L 2.703125 -5.171875 Z M 3.015625 -3.890625" transform="translate(203.734 276.696)"/></g></g></g><g><g><g><path d="M 5.484375 -3.75 L 2.015625 -2.4375 L 2.015625 -0.765625 L -0.0625 0.015625 L 0.34375 -9.203125 L 2.421875 -9.984375 L 8.765625 -3.328125 L 6.609375 -2.515625 Z M 4.328125 -5.0625 L 2.078125 -7.5625 L 2.03125 -4.1875 Z M 4.328125 -5.0625" transform="translate(210.541 274.997)"/></g></g></g><g><g><g><path d="M 3.515625 -6.9375 L 5.125 -7.84375 L 6.765625 -4.96875 C 6.523438 -4.457031 6.171875 -3.953125 5.703125 -3.453125 C 5.242188 -2.960938 4.753906 -2.570312 4.234375 -2.28125 C 3.109375 -1.644531 1.96875 -1.472656 0.8125 -1.765625 C -0.332031 -2.054688 -1.207031 -2.742188 -1.8125 -3.828125 C -2.414062 -4.898438 -2.53125 -6.007812 -2.15625 -7.15625 C -1.789062 -8.300781 -1.03125 -9.203125 0.125 -9.859375 C 0.675781 -10.171875 1.273438 -10.378906 1.921875 -10.484375 C 2.578125 -10.597656 3.1875 -10.597656 3.75 -10.484375 L 3.40625 -8.609375 C 3.007812 -8.691406 2.59375 -8.707031 2.15625 -8.65625 C 1.71875 -8.601562 1.332031 -8.484375 1 -8.296875 C 0.394531 -7.953125 0.00390625 -7.453125 -0.171875 -6.796875 C -0.359375 -6.148438 -0.273438 -5.519531 0.078125 -4.90625 C 0.429688 -4.28125 0.9375 -3.875 1.59375 -3.6875 C 2.25 -3.5 2.878906 -3.578125 3.484375 -3.921875 C 3.867188 -4.140625 4.242188 -4.507812 4.609375 -5.03125 Z M 3.515625 -6.9375" transform="translate(221.634 270.55)"/></g></g></g><g><g><g><path d="M 4.703125 -3.65625 L 2.25 -4.75 L 2.203125 -4.71875 L 0.921875 -3.71875 L 2.375 -1.84375 L 0.671875 -0.515625 L -4.515625 -7.203125 L -1.53125 -9.53125 C -0.644531 -10.21875 0.191406 -10.546875 0.984375 -10.515625 C 1.785156 -10.492188 2.472656 -10.109375 3.046875 -9.359375 C 3.847656 -8.328125 4 -7.289062 3.5 -6.25 L 6.625 -5.140625 Z M -0.125 -5.0625 L 1.15625 -6.0625 C 1.519531 -6.34375 1.734375 -6.65625 1.796875 -7 C 1.859375 -7.351562 1.757812 -7.703125 1.5 -8.046875 C 1.226562 -8.390625 0.914062 -8.566406 0.5625 -8.578125 C 0.21875 -8.597656 -0.132812 -8.46875 -0.5 -8.1875 L -1.78125 -7.1875 Z M -0.125 -5.0625" transform="translate(231.64 264.674)"/></g></g></g><g><g><g><path d="M -2.84375 -9.40625 C -1.9375 -10.351562 -0.890625 -10.859375 0.296875 -10.921875 C 1.492188 -10.992188 2.535156 -10.609375 3.421875 -9.765625 C 4.316406 -8.910156 4.765625 -7.882812 4.765625 -6.6875 C 4.765625 -5.488281 4.3125 -4.414062 3.40625 -3.46875 C 2.507812 -2.519531 1.460938 -2.015625 0.265625 -1.953125 C -0.921875 -1.890625 -1.96875 -2.285156 -2.875 -3.140625 C -3.769531 -3.984375 -4.210938 -5 -4.203125 -6.1875 C -4.191406 -7.382812 -3.738281 -8.457031 -2.84375 -9.40625 Z M -1.53125 -8.1875 C -1.988281 -7.707031 -2.203125 -7.128906 -2.171875 -6.453125 C -2.148438 -5.773438 -1.878906 -5.191406 -1.359375 -4.703125 C -0.847656 -4.222656 -0.253906 -3.984375 0.421875 -3.984375 C 1.109375 -3.992188 1.675781 -4.234375 2.125 -4.703125 C 2.570312 -5.179688 2.773438 -5.753906 2.734375 -6.421875 C 2.703125 -7.097656 2.425781 -7.675781 1.90625 -8.15625 C 1.394531 -8.644531 0.804688 -8.890625 0.140625 -8.890625 C -0.523438 -8.890625 -1.082031 -8.65625 -1.53125 -8.1875 Z M -1.53125 -8.1875" transform="translate(240.546 257.55)"/></g></g></g></svg>