<svg xmlns="http://www.w3.org/2000/svg" width="64" height="64" viewBox="0 0 64 64"><g transform="translate(7 -1244.362)"><g transform="translate(270 260)"><path fill="#fff" fill-rule="evenodd" stroke="#496078" d="m -266.5,1029.1857 0,-26.5279 c 0,-0.9949 0.79907,-1.7956 1.79164,-1.7956 l 39.41672,0 c 0.99257,0 1.79164,0.8007 1.79164,1.7956 l 0,26.5279 z"/><path fill="#7d9ec7" stroke="#496078" stroke-linejoin="round" d="m -220.49946,1026.8907 c 0,2.7546 -2.21799,4.9715 -4.97307,4.9715 l -39.0544,0 c -2.75508,0 -4.97307,-2.2169 -4.97307,-4.9715 z"/><path fill="#e6dfd2" stroke="#496078" d="m -249.49973,1026.8907 9,0 c 0,0 0,0.5919 0,1.3271 0,0.7354 -0.57342,1.3273 -1.28571,1.3273 l -6.42858,0 c -0.71228,0 -1.28571,-0.5919 -1.28571,-1.3273 z"/><path fill="#e6dfd2" stroke="#496078" stroke-linejoin="round" stroke-width=".5" d="m -253.78986,1024.1128 -9.96014,0 0,-20.5051 37.5,0 0,20.5051 -22.16486,0"/></g><g transform="matrix(.72365 0 0 .72067 11.778 549.786)"><rect width="9" height="2.25" x="34" y="1018.862" fill="#7d9ec7" stroke="#496078" stroke-dashoffset=".35" stroke-linecap="round" stroke-linejoin="round" stroke-width=".692"/><rect width="24.113" height="15" x="20" y="1002.362" fill="#eb8e68" stroke="#496078" stroke-dashoffset=".35" stroke-linecap="round" stroke-linejoin="round" stroke-width=".692" rx=".5" ry=".5"/><path fill="#e6dfd2" stroke="#496078" stroke-dashoffset=".35" stroke-linecap="round" stroke-linejoin="round" stroke-width=".692" d="m 46,1004.2122 7.436,0 4.564,6.546 0,6.604 -12,0 z"/><path fill="#7d9ec7" fill-rule="evenodd" d="m 47,1005.3622 5.588236,0 3.911764,5.5936 0,1.4064 -5.5,0 0,-2.006 -4,0 z"/><rect width="38" height="2" x="20" y="1017.362" fill="#7d9ec7" stroke="#496078" stroke-dashoffset=".35" stroke-linecap="round" stroke-linejoin="round" stroke-width=".692"/><path fill="#7d9ec7" stroke="#496078" stroke-dashoffset=".35" stroke-linecap="round" stroke-linejoin="round" stroke-width=".692" d="m 21.84513,1019.343 a 4.25,4.25 0 0 1 4.159414,-3.3558 4.25,4.25 0 0 1 4.152229,3.3647"/><circle cx="26" cy="1020.237" r="2.875" fill="#496078" stroke="#496078" stroke-dashoffset=".35" stroke-linecap="round" stroke-linejoin="round" stroke-width=".692"/><rect width="2" height="1" x="56" y="1015.362" fill="#eb8e68"/><path fill="none" stroke="#496078" stroke-dashoffset=".35" stroke-linecap="round" stroke-linejoin="round" stroke-width=".692" d="m 46,1004.2122 7.436,0 4.564,6.546 0,6.604 -12,0 z"/><path fill="#7d9ec7" stroke="#496078" stroke-dashoffset=".35" stroke-linecap="round" stroke-linejoin="round" stroke-width=".692" d="m 45.719195,1019.343 a 4.25,4.25 0 0 1 4.159415,-3.3558 4.25,4.25 0 0 1 4.152228,3.3647"/><circle cx="49.875" cy="1020.237" r="2.875" fill="#496078" stroke="#496078" stroke-dashoffset=".35" stroke-linecap="round" stroke-linejoin="round" stroke-width=".692"/><g transform="translate(10.167 418.685) scale(.58334)"><path fill="#e9eded" d="m 23.25869,1003.3615 c -0.690602,0 -1.259391,0.5688 -1.259391,1.2594 l 0,2.3407 a 0.40004493,0.40004493 0 1 0 0.80001,0 l 0,-2.3407 c 0,-0.2613 0.198118,-0.4594 0.459381,-0.4594 l 0.740634,0 a 0.40004493,0.40004493 0 1 0 0,-0.8 l -0.740634,0 z" color="#000" font-family="sans-serif" font-weight="400" overflow="visible" style="line-height:normal;text-indent:0;text-align:start;text-decoration-line:none;text-decoration-style:solid;text-decoration-color:#000;text-transform:none;block-progression:tb;isolation:auto;mix-blend-mode:normal"/><path fill="#e9eded" fill-rule="evenodd" d="M22.405554 1004.9615a.40005.40005 0 1 0 0 .8001l1.193765 0a.40005.40005 0 1 0 0-.8001l-1.193765 0zM25.599896 1003.362a.40004493.40004493 0 0 0-.393755.4047l0 3.2a.40004493.40004493 0 1 0 .80001 0l0-3.2a.40004493.40004493 0 0 0-.406255-.4047z" color="#000" font-family="sans-serif" font-weight="400" overflow="visible" style="line-height:normal;text-indent:0;text-align:start;text-decoration-line:none;text-decoration-style:solid;text-decoration-color:#000;text-transform:none;block-progression:tb;isolation:auto;mix-blend-mode:normal"/><path fill="#e9eded" d="m 26.399906,1003.362 0,0.8 c 0.228522,0 0.400005,0.1715 0.400005,0.4 0,0.2285 -0.171483,0.4 -0.400005,0.4 l 0,0.8 c 0.657889,0 1.200015,-0.5421 1.200015,-1.2 0,-0.6579 -0.542126,-1.2 -1.200015,-1.2 z" color="#000" font-family="sans-serif" font-weight="400" overflow="visible" style="line-height:normal;text-indent:0;text-align:start;text-decoration-line:none;text-decoration-style:solid;text-decoration-color:#000;text-transform:none;block-progression:tb;isolation:auto;mix-blend-mode:normal"/><path fill="#e9eded" fill-rule="evenodd" d="M25.579584 1003.362c-.533509.027-.492869.8273.04062.8l.785947 0c.540935.01.540935-.8077 0-.8l-.785947 0c-.01354-.0007-.02709-.0007-.04062 0zM25.606146 1004.9667a.40004493.40004493 0 1 0 0 .8l.80001 0a.40004493.40004493 0 1 0 0-.8l-.80001 0z" color="#000" font-family="sans-serif" font-weight="400" overflow="visible" style="line-height:normal;text-indent:0;text-align:start;text-decoration-line:none;text-decoration-style:solid;text-decoration-color:#000;text-transform:none;block-progression:tb;isolation:auto;mix-blend-mode:normal"/><path fill="#e9eded" fill-rule="evenodd" d="M26.401468 1004.9635a.40004493.40004493 0 0 0-.364066.5845l.800009 1.6a.40007013.40007013 0 1 0 .715634-.3579l-.80001-1.6a.40004493.40004493 0 0 0-.351567-.2266zM28.794239 1003.3589a.40004493.40004493 0 0 0-.393755.4062l0 3.1907a.40004493.40004493 0 1 0 .800009 0l0-3.1907a.40004493.40004493 0 0 0-.406254-.4062z" color="#000" font-family="sans-serif" font-weight="400" overflow="visible" style="line-height:normal;text-indent:0;text-align:start;text-decoration-line:none;text-decoration-style:solid;text-decoration-color:#000;text-transform:none;block-progression:tb;isolation:auto;mix-blend-mode:normal"/><path fill="#e9eded" fill-rule="evenodd" d="M28.803613 1003.3589a.40004493.40004493 0 1 0 0 .8l1.590646 0a.40004493.40004493 0 1 0 0-.8l-1.590646 0zM28.803613 1006.5589a.40004493.40004493 0 1 0 0 .8l1.590646 0a.40004493.40004493 0 1 0 0-.8l-1.590646 0zM28.803613 1004.9589a.40004493.40004493 0 1 0 0 .8l.790636 0a.40004493.40004493 0 1 0 0-.8l-.790636 0zM31.994278 1003.3589a.40004493.40004493 0 0 0-.393755.4062l0 3.1907a.40004493.40004493 0 1 0 .80001 0l0-3.1907a.40004493.40004493 0 0 0-.406255-.4062z" color="#000" font-family="sans-serif" font-weight="400" overflow="visible" style="line-height:normal;text-indent:0;text-align:start;text-decoration-line:none;text-decoration-style:solid;text-decoration-color:#000;text-transform:none;block-progression:tb;isolation:auto;mix-blend-mode:normal"/><path fill="#e9eded" fill-rule="evenodd" style="line-height:normal;text-indent:0;text-align:start;text-decoration-line:none;text-decoration-style:solid;text-decoration-color:#000;text-transform:none;block-progression:tb;isolation:auto;mix-blend-mode:normal" d="M32.003653 1003.3589a.40004493.40004493 0 1 0 0 .8l1.590645 0a.40004493.40004493 0 1 0 0-.8l-1.590645 0zM32.003653 1006.5589a.40004493.40004493 0 1 0 0 .8l1.590645 0a.40004493.40004493 0 1 0 0-.8l-1.590645 0zM32.003653 1004.9589a.40004493.40004493 0 1 0 0 .8l.790635 0a.40004493.40004493 0 1 0 0-.8l-.790635 0z" color="#000" font-family="sans-serif" font-weight="400" overflow="visible"/></g><path fill="#a3bf62" style="line-height:normal;text-indent:0;text-align:start;text-decoration-line:none;text-decoration-style:solid;text-decoration-color:#000;text-transform:none;block-progression:tb;isolation:auto;mix-blend-mode:normal" d="m 47,1011.3622 3,0 0,1 -3,0 z" color="#000" font-family="sans-serif" font-weight="400" overflow="visible"/><g transform="translate(1 -2.034)"><path fill="#e9eded" fill-rule="evenodd" d="m 22.200284,1009.3572 a 0.20319538,0.20319538 0 0 0 -0.200001,0.2064 l 0,1.6255 a 0.20319538,0.20319538 0 1 0 0.40635,0 l 0,-1.6255 a 0.20319538,0.20319538 0 0 0 -0.206349,-0.2064 z" color="#000" font-family="sans-serif" font-weight="400" overflow="visible" style="line-height:normal;text-indent:0;text-align:start;text-decoration-line:none;text-decoration-style:solid;text-decoration-color:#000;text-transform:none;block-progression:tb;isolation:auto;mix-blend-mode:normal"/><path fill="#e9eded" fill-rule="evenodd" d="M22.209014 1009.3633a.20319538.20319538 0 1 0 0 .4063l.406351 0a.20319538.20319538 0 1 0 0-.4063l-.406351 0zM22.206633 1010.9887a.20319538.20319538 0 1 0 0 .4063l.406351 0a.20319538.20319538 0 1 0 0-.4063l-.406351 0z" color="#000" font-family="sans-serif" font-weight="400" overflow="visible" style="line-height:normal;text-indent:0;text-align:start;text-decoration-line:none;text-decoration-style:solid;text-decoration-color:#000;text-transform:none;block-progression:tb;isolation:auto;mix-blend-mode:normal"/><path fill="#e9eded" d="m 22.584412,1009.3633 a 0.20319537,0.20319537 0 1 0 0,0.4063 c 0.36256,0 0.641271,0.2724 0.641271,0.6096 0,0.337 -0.278722,0.6095 -0.641271,0.6095 a 0.20319537,0.20319537 0 1 0 0,0.4063 c 0.572578,0 1.047622,-0.4524 1.047622,-1.0158 0,-0.5636 -0.475055,-1.0159 -1.047622,-1.0159 z" color="#000" font-family="sans-serif" font-weight="400" overflow="visible" style="line-height:normal;text-indent:0;text-align:start;text-decoration-line:none;text-decoration-style:solid;text-decoration-color:#000;text-transform:none;block-progression:tb;isolation:auto;mix-blend-mode:normal"/><path fill="#e9eded" fill-rule="evenodd" style="line-height:normal;text-indent:0;text-align:start;text-decoration-line:none;text-decoration-style:solid;text-decoration-color:#000;text-transform:none;block-progression:tb;isolation:auto;mix-blend-mode:normal" d="m 24.233341,1009.3559 a 0.20319538,0.20319538 0 0 0 -0.2,0.2064 l 0,1.6206 a 0.20319538,0.20319538 0 1 0 0.40635,0 l 0,-1.6206 a 0.20319538,0.20319538 0 0 0 -0.20635,-0.2064 z" color="#000" font-family="sans-serif" font-weight="400" overflow="visible"/><path fill="#e9eded" fill-rule="evenodd" style="line-height:normal;text-indent:0;text-align:start;text-decoration-line:none;text-decoration-style:solid;text-decoration-color:#000;text-transform:none;block-progression:tb;isolation:auto;mix-blend-mode:normal" d="M24.238103 1009.3559a.2032.2032 0 1 0 0 .4064l.807939 0a.2032.2032 0 1 0 0-.4064l-.807939 0zM24.238103 1010.9814a.20319538.20319538 0 1 0 0 .4063l.807939 0a.20319538.20319538 0 1 0 0-.4063l-.807939 0zM24.238103 1010.1686a.20321272.20321272 0 1 0 0 .4064l.401588 0a.20321272.20321272 0 0 0 0-.4064l-.401588 0zM25.857411 1009.3559a.20319538.20319538 0 0 0-.200001.2064l0 1.6206a.20319538.20319538 0 1 0 .40635 0l0-1.6206a.20319538.20319538 0 0 0-.206349-.2064z" color="#000" font-family="sans-serif" font-weight="400" overflow="visible"/><path fill="#e9eded" fill-rule="evenodd" style="line-height:normal;text-indent:0;text-align:start;text-decoration-line:none;text-decoration-style:solid;text-decoration-color:#000;text-transform:none;block-progression:tb;isolation:auto;mix-blend-mode:normal" d="M26.877102 1011.1826c-.0018-.1122-.09413-.2017-.206344-.1999l-.726846 0c-.274758-.01-.274758.4102 0 .4063l.726846 0c.114695 0 .208137-.092.206344-.2064zM27.482861 1009.3559a.20319538.20319538 0 0 0-.200001.2064l0 1.6206a.20319538.20319538 0 1 0 .406351 0l0-1.6206a.20319538.20319538 0 0 0-.20635-.2064zM28.303871 1009.3573a.20319538.20319538 0 0 0-.194444.277l.609525 1.6254a.20319538.20319538 0 0 0 .380953 0l.609525-1.6254a.20329095.20329095 0 0 0-.380954-.142l-.419048 1.1174-.419049-1.1174a.20319538.20319538 0 0 0-.186508-.135zM30.329273 1009.3589a.20319538.20319538 0 0 0-.200001.2063l0 1.6207a.20319538.20319538 0 1 0 .40635 0l0-1.6207a.20319538.20319538 0 0 0-.206349-.2063z" color="#000" font-family="sans-serif" font-weight="400" overflow="visible"/><path fill="#e9eded" fill-rule="evenodd" d="M30.334034 1009.3589a.20319538.20319538 0 1 0 0 .4063l.807939 0a.20319538.20319538 0 1 0 0-.4063l-.807939 0zM30.334034 1010.9842a.2032.2032 0 1 0 0 .4064l.807939 0a.2032.2032 0 1 0 0-.4064l-.807939 0zM30.334034 1010.1716a.20319538.20319538 0 1 0 0 .4063l.401589 0a.20319538.20319538 0 1 0 0-.4063l-.401589 0zM31.957055 1009.3542a.20319538.20319538 0 0 0-.200001.2055l0 1.6254a.20319538.20319538 0 1 0 .40635 0l0-1.6254a.20319538.20319538 0 0 0-.206349-.2055z" color="#000" font-family="sans-serif" font-weight="400" overflow="visible" style="line-height:normal;text-indent:0;text-align:start;text-decoration-line:none;text-decoration-style:solid;text-decoration-color:#000;text-transform:none;block-progression:tb;isolation:auto;mix-blend-mode:normal"/><path fill="#e9eded" d="m 32.363404,1009.3542 0,0.4063 c 0.116074,0 0.203175,0.087 0.203175,0.2032 0,0.116 -0.0871,0.2031 -0.203175,0.2031 l 0,0.4064 c 0.334163,0 0.609526,-0.2753 0.609526,-0.6095 0,-0.3342 -0.275363,-0.6095 -0.609526,-0.6095 z" color="#000" font-family="sans-serif" font-weight="400" overflow="visible" style="line-height:normal;text-indent:0;text-align:start;text-decoration-line:none;text-decoration-style:solid;text-decoration-color:#000;text-transform:none;block-progression:tb;isolation:auto;mix-blend-mode:normal"/><path fill="#e9eded" fill-rule="evenodd" d="M31.945545 1009.3542c-.270986.014-.250344.4201.02063.4063l.400399 0c.274758.01.274758-.4102 0-.4063l-.400399 0c-.0069-.0004-.01376-.0004-.02063 0zM31.955862 1010.1692c-.274758-.01-.274758.4102 0 .4063l.410717 0c.274758.01.274758-.4101 0-.4063z" color="#000" font-family="sans-serif" font-weight="400" overflow="visible" style="line-height:normal;text-indent:0;text-align:start;text-decoration-line:none;text-decoration-style:solid;text-decoration-color:#000;text-transform:none;block-progression:tb;isolation:auto;mix-blend-mode:normal"/><path fill="#e9eded" fill-rule="evenodd" d="M32.364198 1010.1676a.20319538.20319538 0 0 0-.184921.2969l.40635.8127a.20321294.20321294 0 1 0 .363493-.1818l-.40635-.8127a.20319538.20319538 0 0 0-.178572-.1151zM33.586818 1009.3621a.20319538.20319538 0 0 0-.01984 0 .20319538.20319538 0 0 0-.03969.01.20319538.20319538 0 0 0-.01905.01.20319538.20319538 0 0 0-.01904.01.20319538.20319538 0 0 0-.01746.01.20319538.20319538 0 0 0-.06667.074.20319538.20319538 0 0 0-.0087.019.20319538.20319538 0 0 0-.01508.08.20319538.20319538 0 0 0 .0016.02.20319538.20319538 0 0 0 .01588.058.20319538.20319538 0 0 0 .0095.019.20319538.20319538 0 0 0 .0119.019l.567461.7564 0 .7413a.20319538.20319538 0 0 0 .0016.02.20319538.20319538 0 0 0 .0032.019.20319538.20319538 0 0 0 .02143.056.20319538.20319538 0 0 0 .02381.034.20319538.20319538 0 0 0 .04603.04.20319538.20319538 0 0 0 .03651.018.20319538.20319538 0 0 0 .01905.01.20319538.20319538 0 0 0 .06032.01.20319538.20319538 0 0 0 .05953-.012.20319538.20319538 0 0 0 .01904-.01.20319538.20319538 0 0 0 .01747-.01.20319538.20319538 0 0 0 .01746-.011.20319538.20319538 0 0 0 .01508-.012.20319538.20319538 0 0 0 .01428-.014.20319538.20319538 0 0 0 .0127-.016.20319538.20319538 0 0 0 .01112-.018.20319538.20319538 0 0 0 .02619-.076.20319538.20319538 0 0 0 .0016-.023l0-.7412.567461-.7563a.20319538.20319538 0 0 0 .02777-.054.20319538.20319538 0 0 0 .01032-.08.20319538.20319538 0 0 0-.01349-.059.20319538.20319538 0 0 0-.0079-.019.20319538.20319538 0 0 0-.01032-.017.20319538.20319538 0 0 0-.0119-.017.20319538.20319538 0 0 0-.179365-.076.20319538.20319538 0 0 0-.07699.024.20319538.20319538 0 0 0-.01746.011.20319538.20319538 0 0 0-.03096.025.20319538.20319538 0 0 0-.01508.018l-.445217.5932-.44524-.5937a.20319538.20319538 0 0 0-.01349-.015.20319538.20319538 0 0 0-.03096-.027.20319538.20319538 0 0 0-.05397-.027.20319538.20319538 0 0 0-.06032-.01z" color="#000" font-family="sans-serif" font-weight="400" overflow="visible" style="line-height:normal;text-indent:0;text-align:start;text-decoration-line:none;text-decoration-style:solid;text-decoration-color:#000;text-transform:none;block-progression:tb;isolation:auto;mix-blend-mode:normal"/></g></g><path fill="none" stroke="#496078" stroke-linecap="round" d="M17.492917 1274.4096l7 0M20.492917 1276.9096l4 0M22.492917 1279.4096l2 0"/><rect width="16.346" height="3.269" x="-3.5" y="1272.477" fill="#b4cec5" stroke="#496078" stroke-dashoffset="2" stroke-linecap="round" stroke-linejoin="round" color="#000" overflow="visible" style="isolation:auto;mix-blend-mode:normal"/><rect width="15.038" height="11.115" x="-2.846" y="1275.747" fill="#70979c" stroke="#496078" stroke-dashoffset="2" stroke-linecap="round" stroke-linejoin="round" style="isolation:auto;mix-blend-mode:normal" color="#000" overflow="visible"/><rect width="1.962" height="14.385" x="3.692" y="1272.477" fill="#eb8e68" stroke="#496078" stroke-dashoffset="2" stroke-linecap="round" stroke-linejoin="round" color="#000" overflow="visible" style="isolation:auto;mix-blend-mode:normal"/><path fill="#eb8e68" stroke="#496078" stroke-dashoffset="2" stroke-linecap="round" stroke-linejoin="round" d="m 6.0949453,1269.862 a 2.9561012,2.9918931 0 0 1 1.5204915,2.6154 l -2.9561012,0 z" color="#000" overflow="visible" style="isolation:auto;mix-blend-mode:normal"/><path fill="#eb8e68" stroke="#496078" stroke-dashoffset="2" stroke-linecap="round" stroke-linejoin="round" style="isolation:auto;mix-blend-mode:normal" d="m -3.2513014,1269.862 a 2.9561012,2.9918931 0 0 1 1.5204915,2.6154 l -2.9561012,0 z" color="#000" overflow="visible" transform="scale(-1 1)"/></g></svg>