<svg xmlns="http://www.w3.org/2000/svg" data-name="Layer 1" viewBox="0 0 32 32"><path fill="#f8a839" d="M5.919,24.49c1.478,5.019,8.26,6.934,12.387,7.113,2.182.095,6.9.3,9.549-3.187a9.043,9.043,0,0,0,1.575-6.28.29.29,0,0,0-.488-.185,3.247,3.247,0,0,1-2.674.91c.211-.256,2.731-3.4,1.547-6.732A5.707,5.707,0,0,0,26.74,14.3a.251.251,0,0,0-.436.161,2.45,2.45,0,0,1-2.747,2.325c.234-.759,1.945-6.644-1.671-11.72A12.8,12.8,0,0,0,16.1.625a.131.131,0,0,0-.179.145,15.128,15.128,0,0,1-1.1,8.5A5.343,5.343,0,0,0,10.846,6.3a.352.352,0,0,0-.4.424,9.3,9.3,0,0,1-.15,4.88c-.8,2.468-2.156,3.115-3.5,5.465A10.079,10.079,0,0,0,5.919,24.49Z"/><path fill="#fddd56" d="M19.4,23.112c.087.7.433,1.385.118,2.083a1.26,1.26,0,0,1-1.974.384,2.354,2.354,0,0,1-.694-2.034,4.506,4.506,0,0,1,2.026-3.264,4.592,4.592,0,0,0,1.983-2.46,5.364,5.364,0,0,0-.276-3.6,5.292,5.292,0,0,0-1.975-2.293c-.179-.114-.655-.279-.728-.494a6.336,6.336,0,0,1-.752,6.017,28.785,28.785,0,0,1-2.217,2.5,12.117,12.117,0,0,0-2.624,3.979,6.518,6.518,0,0,0,.621,5.6,5.462,5.462,0,0,0,6.074,2.227,5.079,5.079,0,0,0,2.918-1.828,3.96,3.96,0,0,0,.377-3.921A5.083,5.083,0,0,0,19.4,23.112Z"/><path fill="#57ba8e" d="M7.116,14.993h.835a2.933,2.933,0,0,1,2.933,2.933v1.252a0,0,0,0,1,0,0H9.622a2.933,2.933,0,0,1-2.933-2.933V15.42a.426.426,0,0,1,.426-.426Z" transform="rotate(90 8.787 17.086)"/><path fill="#57ba8e" d="M5.437,14.993H6.7a0,0,0,0,1,0,0v1.252a2.933,2.933,0,0,1-2.933,2.933H2.93a.426.426,0,0,1-.426-.426v-.826A2.933,2.933,0,0,1,5.437,14.993Z" transform="rotate(90 4.601 17.086)"/><path fill="#57ba8e" d="M7.116,20.573h.835a2.933,2.933,0,0,1,2.933,2.933v1.252a0,0,0,0,1,0,0H9.622a2.933,2.933,0,0,1-2.933-2.933V21A.426.426,0,0,1,7.116,20.573Z" transform="rotate(90 8.787 22.666)"/><path fill="#57ba8e" d="M5.437,20.573H6.7a0,0,0,0,1,0,0v1.252a2.933,2.933,0,0,1-2.933,2.933H2.93a.426.426,0,0,1-.426-.426v-.826A2.933,2.933,0,0,1,5.437,20.573Z" transform="rotate(90 4.601 22.665)"/><path fill="#57ba8e" d="M7.116,25.985h.835a2.933,2.933,0,0,1,2.933,2.933v1.252a0,0,0,0,1,0,0H9.622a2.933,2.933,0,0,1-2.933-2.933v-.826A.426.426,0,0,1,7.116,25.985Z" transform="rotate(90 8.787 28.078)"/><path fill="#57ba8e" d="M5.437,25.985H6.7a0,0,0,0,1,0,0v1.252a2.933,2.933,0,0,1-2.933,2.933H2.93a.426.426,0,0,1-.426-.426v-.826A2.933,2.933,0,0,1,5.437,25.985Z" transform="rotate(90 4.601 28.078)"/><path fill="#b18968" d="M6.694,31.98a.471.471,0,0,1-.471-.471v-17.8a.471.471,0,1,1,.941,0v17.8A.471.471,0,0,1,6.694,31.98Z"/><path fill="#57ba8e" d="M6.694,14.71l-.888-.89a2.941,2.941,0,0,1,0-4.152l.587-.588a.425.425,0,0,1,.6,0l.587.588a2.941,2.941,0,0,1,0,4.152Z"/><path fill="#57ba8e" d="M17.948,14.993h.835a2.933,2.933,0,0,1,2.933,2.933v1.252a0,0,0,0,1,0,0H20.455a2.933,2.933,0,0,1-2.933-2.933V15.42A.426.426,0,0,1,17.948,14.993Z" transform="rotate(90 19.619 17.086)"/><path fill="#57ba8e" d="M16.27,14.993h1.261a0,0,0,0,1,0,0v1.252A2.933,2.933,0,0,1,14.6,19.179h-.835a.426.426,0,0,1-.426-.426v-.826A2.933,2.933,0,0,1,16.27,14.993Z" transform="rotate(90 15.434 17.086)"/><path fill="#57ba8e" d="M17.948,20.573h.835a2.933,2.933,0,0,1,2.933,2.933v1.252a0,0,0,0,1,0,0H20.455a2.933,2.933,0,0,1-2.933-2.933V21A.426.426,0,0,1,17.948,20.573Z" transform="rotate(90 19.619 22.665)"/><path fill="#57ba8e" d="M16.27,20.573h1.261a0,0,0,0,1,0,0v1.252A2.933,2.933,0,0,1,14.6,24.758h-.835a.426.426,0,0,1-.426-.426v-.826A2.933,2.933,0,0,1,16.27,20.573Z" transform="rotate(90 15.433 22.666)"/><path fill="#57ba8e" d="M17.948,25.985h.835a2.933,2.933,0,0,1,2.933,2.933v1.252a0,0,0,0,1,0,0H20.455a2.933,2.933,0,0,1-2.933-2.933v-.826A.426.426,0,0,1,17.948,25.985Z" transform="rotate(90 19.619 28.078)"/><path fill="#57ba8e" d="M16.27,25.985h1.261a0,0,0,0,1,0,0v1.252A2.933,2.933,0,0,1,14.6,30.171h-.835a.426.426,0,0,1-.426-.426v-.826A2.933,2.933,0,0,1,16.27,25.985Z" transform="rotate(90 15.434 28.078)"/><path fill="#b18968" d="M17.527,31.98a.471.471,0,0,1-.471-.471v-17.8a.471.471,0,1,1,.941,0v17.8A.471.471,0,0,1,17.527,31.98Z"/><path fill="#57ba8e" d="M17.526,14.71l-.888-.89a2.941,2.941,0,0,1,0-4.152l.587-.588a.425.425,0,0,1,.6,0l.587.588a2.941,2.941,0,0,1,0,4.152Z"/><path d="M20.287,7.7a3.544,3.544,0,0,1,.138,1.213.471.471,0,0,0,.442.5h.027a.471.471,0,0,0,.47-.444,4.468,4.468,0,0,0-.175-1.535,5.062,5.062,0,0,0-2.5-2.912.47.47,0,1,0-.437.833A4.113,4.113,0,0,1,20.287,7.7Zm5.687,11.728a.47.47,0,1,0-.6-.723c-1.438,1.2-2.141,2.4-2.088,3.562a3.591,3.591,0,0,0,.484,1.532,3.894,3.894,0,0,1,.5,1.512,4.154,4.154,0,0,1-.463,2.222.47.47,0,0,0,.214.63.464.464,0,0,0,.208.049.471.471,0,0,0,.422-.263,5.078,5.078,0,0,0,.557-2.724,4.8,4.8,0,0,0-.593-1.849,2.74,2.74,0,0,1-.386-1.152C24.186,21.369,24.775,20.428,25.974,19.428Zm3.938,2.543a.761.761,0,0,0-1.292-.473,2.731,2.731,0,0,1-.947.6,2.789,2.789,0,0,1-.453.132,7.444,7.444,0,0,0,1.047-6.391,6.1,6.1,0,0,0-1.16-1.973.713.713,0,0,0-.762-.209.736.736,0,0,0-.5.641,2.077,2.077,0,0,1-.811,1.529,1.9,1.9,0,0,1-.843.345c.474-1.948,1.264-7.049-1.914-11.508a13.141,13.141,0,0,0-5.988-4.6.608.608,0,0,0-.615.1.583.583,0,0,0-.205.553,15.392,15.392,0,0,1,.1,3.927,14.671,14.671,0,0,1-.814,3.443,5.743,5.743,0,0,0-3.82-2.375.81.81,0,0,0-.72.239.839.839,0,0,0-.217.757,8.745,8.745,0,0,1-.131,4.612l-.073.214a.47.47,0,1,0,.867.364,1.679,1.679,0,0,0,.058-.161l.036-.106a9.613,9.613,0,0,0,.2-4.959,4.833,4.833,0,0,1,3.462,2.681.428.428,0,0,0,.433.264.47.47,0,0,0,.421-.282A15.786,15.786,0,0,0,16.5,4.74a16.263,16.263,0,0,0-.023-3.58A12.124,12.124,0,0,1,21.51,5.214c3.366,4.724,1.934,10.251,1.612,11.311a.47.47,0,0,0,.407.605A2.888,2.888,0,0,0,26.7,14.875a5.083,5.083,0,0,1,.676,1.284c1.077,3.013-1.2,5.96-1.463,6.287a.471.471,0,0,0,.319.764,3.86,3.86,0,0,0,1.776-.229,3.79,3.79,0,0,0,.99-.564,8.3,8.3,0,0,1-1.515,5.591,7.833,7.833,0,0,1-5.362,2.878.471.471,0,0,0,.066.937.524.524,0,0,0,.068,0,8.737,8.737,0,0,0,5.977-3.241A9.379,9.379,0,0,0,29.911,21.971ZM13.2,12.629h.016a.472.472,0,0,0,.471-.456,4.7,4.7,0,0,0-.871-2.879.47.47,0,1,0-.766.547,3.773,3.773,0,0,1,.522,1.045,3.73,3.73,0,0,1,.173,1.257A.471.471,0,0,0,13.2,12.629Zm8.98,13.778a.9.9,0,0,0-.9-.9h-.826A3.386,3.386,0,0,0,18,26.576V25.233h.781a3.408,3.408,0,0,0,3.4-3.4v-.835a.9.9,0,0,0-.9-.9h-.826A3.386,3.386,0,0,0,18,21.164v-1.51h.781a3.408,3.408,0,0,0,3.4-3.4v-.835a.9.9,0,0,0-.9-.9h-.826A3.386,3.386,0,0,0,18,15.584V14.9l.75-.752a3.414,3.414,0,0,0,0-4.817l-.587-.587a.916.916,0,0,0-1.269,0l-.586.587a3.414,3.414,0,0,0,0,4.817l.75.752v.681a3.387,3.387,0,0,0-2.463-1.067h-.825a.9.9,0,0,0-.9.9v.835a3.407,3.407,0,0,0,3.4,3.4h.782v1.51A3.387,3.387,0,0,0,14.593,20.1h-.825a.9.9,0,0,0-.9.9v.835a3.407,3.407,0,0,0,3.4,3.4h.782v1.344a3.387,3.387,0,0,0-2.463-1.067h-.825a.9.9,0,0,0-.9.9v.835a3.407,3.407,0,0,0,3.4,3.4h.782v.864a.471.471,0,0,0,.941,0v-.864h.781a3.408,3.408,0,0,0,3.4-3.4Zm-5.127,3.3h-.782a2.465,2.465,0,0,1-2.462-2.462l-.044-.791h.825a2.465,2.465,0,0,1,2.463,2.462Zm0-5.413h-.782a2.465,2.465,0,0,1-2.462-2.462l-.044-.791h.825A2.465,2.465,0,0,1,17.056,23.5Zm0-5.579h-.782a2.465,2.465,0,0,1-2.462-2.462l-.044-.791h.825a2.465,2.465,0,0,1,2.463,2.462Zm3.4,2.326.782-.044v.835a2.465,2.465,0,0,1-2.463,2.462H18V23.5A2.465,2.465,0,0,1,20.459,21.039Zm0-5.579.782-.044v.835a2.465,2.465,0,0,1-2.463,2.462H18v-.791A2.465,2.465,0,0,1,20.459,15.459Zm-2.933-1.416-.555-.556a2.472,2.472,0,0,1,0-3.488l.522-.587.587.588a2.471,2.471,0,0,1,0,3.487Zm3.715,13.2A2.465,2.465,0,0,1,18.779,29.7H18v-.791a2.465,2.465,0,0,1,2.462-2.462l.782-.044ZM10.453,14.518H9.627a3.387,3.387,0,0,0-2.463,1.067V14.9l.75-.752a3.413,3.413,0,0,0,0-4.817l-.587-.589a.917.917,0,0,0-1.268,0l-.587.588a3.416,3.416,0,0,0,0,4.817l.75.752v.68a3.386,3.386,0,0,0-2.462-1.066H2.935a.9.9,0,0,0-.9.9v.835a3.408,3.408,0,0,0,3.4,3.4h.781v1.51A3.386,3.386,0,0,0,3.761,20.1H2.935a.9.9,0,0,0-.9.9v.835a3.408,3.408,0,0,0,3.4,3.4h.781v1.343A3.386,3.386,0,0,0,3.761,25.51H2.935a.9.9,0,0,0-.9.9v.835a3.408,3.408,0,0,0,3.4,3.4h.781v.864a.471.471,0,0,0,.941,0v-.864h.782a3.407,3.407,0,0,0,3.4-3.4v-.835a.9.9,0,0,0-.9-.9H9.627a3.387,3.387,0,0,0-2.463,1.067V25.233h.782a3.407,3.407,0,0,0,3.4-3.4v-.835a.9.9,0,0,0-.9-.9H9.627a3.387,3.387,0,0,0-2.463,1.067v-1.51h.782a3.407,3.407,0,0,0,3.4-3.4v-.835A.9.9,0,0,0,10.453,14.518ZM6.223,29.7H5.442a2.465,2.465,0,0,1-2.463-2.462l-.044-.791h.826a2.465,2.465,0,0,1,2.462,2.462Zm0-5.413H5.442A2.465,2.465,0,0,1,2.979,21.83l-.044-.791h.826A2.465,2.465,0,0,1,6.223,23.5Zm0-5.579H5.442A2.465,2.465,0,0,1,2.979,16.25l-.044-.791h.826a2.465,2.465,0,0,1,2.462,2.462Zm3.4,7.739.781-.044v.835A2.465,2.465,0,0,1,7.947,29.7H7.164v-.791A2.465,2.465,0,0,1,9.627,26.451Zm0-5.413.781-.044v.835a2.465,2.465,0,0,1-2.462,2.462H7.164V23.5A2.465,2.465,0,0,1,9.627,21.039Zm-2.934-7-.555-.556a2.473,2.473,0,0,1,0-3.487l.523-.588L7.248,10a2.471,2.471,0,0,1,0,3.487Zm3.715,2.207a2.465,2.465,0,0,1-2.462,2.462H7.164v-.791a2.465,2.465,0,0,1,2.463-2.462l.781-.044Z"/></svg>