<svg xmlns="http://www.w3.org/2000/svg" width="64" height="64" viewBox="0 0 64 64"><path fill="#82B23F" d="M51.178 1.104C48.943.007 37.614 1.26 29.442 9.096 16.572 21.95 16.881 38.878 16.881 38.878s-.424 1.743-2.238-.784c-3.968-5.055-1.889-16.689-1.657-18.311.328-2.281-1.127-2.351-1.734-1.595-14.335 19.905-1.388 36.206 7.091 41.38 9.924 6.055 29.505 6.053 37.306-11.128 9.711-21.397-1.672-45.963-4.471-47.336z"/><path fill="#B3E856" d="M50.955 19.983c.995-6.673 1.001-13.101.183-18.893-2.31-1.068-13.565.208-21.696 8.006-12.87 12.854-12.561 29.782-12.561 29.782s-.424 1.743-2.238-.784c-3.968-5.055-1.889-16.689-1.657-18.311.328-2.281-1.127-2.351-1.734-1.595-8.664 12.03-7.357 22.738-3.1 30.475 4.261 4.575 9.11 7.582 13.601 8.252 12.8 1.91 25.872-14.625 29.202-36.932z"/><path fill="#98D13F" d="M50.955 19.983c.995-6.673 1.001-13.101.183-18.893-2.31-1.068-11.275 2.642-19.407 10.442-12.87 12.853-14.85 27.346-14.85 27.346s-.424 1.743-2.238-.784c-3.968-5.055-2.604-13.788-2.371-15.409.329-2.282-1.127-2.351-1.734-1.595-8.663 12.03-6.642 19.837-2.384 27.573 4.261 4.575 9.11 7.582 13.601 8.252 12.798 1.91 25.87-14.625 29.2-36.932z"/></svg>