<svg xmlns="http://www.w3.org/2000/svg" viewBox="0 0 32 32"><g data-name="Layer 16"><path d="M30 24a1 1 0 0 0-1 1v4H25a1 1 0 0 0 0 2h5a1 1 0 0 0 1-1V25A1 1 0 0 0 30 24zM30 1H25a1 1 0 0 0 0 2h4V7a1 1 0 0 0 2 0V2A1 1 0 0 0 30 1zM2 8A1 1 0 0 0 3 7V3H7A1 1 0 0 0 7 1H2A1 1 0 0 0 1 2V7A1 1 0 0 0 2 8zM7 29H3V25a1 1 0 0 0-2 0v5a1 1 0 0 0 1 1H7a1 1 0 0 0 0-2zM28 16a1.0023 1.0023 0 0 0-.2954-.71c-.2129-.2109-5.291-5.1787-11.7046-5.1787S4.5083 15.0791 4.2954 15.29a1.0009 1.0009 0 0 0 0 1.42c.2129.2109 5.291 5.1787 11.7046 5.1787S27.4917 16.9209 27.7046 16.71A1.0023 1.0023 0 0 0 28 16zM16 19.8887c-4.2124 0-7.9092-2.5977-9.4858-3.8887C8.0908 14.709 11.7876 12.1113 16 12.1113S23.9092 14.709 25.4858 16C23.9092 17.291 20.2124 19.8887 16 19.8887z"/><path d="M13,16a3,3,0,0,0,6,0,1,1,0,0,0-2,0,1,1,0,1,1-1-1,1,1,0,0,0,0-2A3.0033,3.0033,0,0,0,13,16Z"/></g></svg>