<svg xmlns="http://www.w3.org/2000/svg" enable-background="new 0 0 64 64" viewBox="0 0 64 64"><path fill="#acd2fe" d="M27.1,58.8C13.3,58.8,2,47.5,2,33.7C2,19.8,13.3,8.5,27.1,8.5c7.9,0,15.1,3.6,19.9,9.8l3.9,7.1
		c0.9,2.6,1.4,5.4,1.4,8.2C52.2,47.5,40.9,58.8,27.1,58.8z"/><path fill="#fff" d="M33.2 51.5c-2 0-3.6-1.6-3.6-3.6 0-2 1.6-3.6 3.6-3.6 2 0 3.6 1.6 3.6 3.6C36.8 49.9 35.2 51.5 33.2 51.5zM29.4 21.4c-2 0-3.6-1.6-3.6-3.6 0-2 1.6-3.6 3.6-3.6 2 0 3.6 1.6 3.6 3.6C33 19.8 31.4 21.4 29.4 21.4z"/><rect width="2.3" height="10.3" x="57.4" y="7.5" fill="#acd2fe" transform="rotate(-45.001 58.57 12.65)"/><path fill="#fff" d="M36.9,34c0.4-1.4,0.8-2.9,1.2-4.3c0.1-0.4,0.4-1.3,0.8-1.7c0.2-0.1,0.4-0.3,0.6-0.5l8.1,0.3
		c-0.6,0.6-1.2,1.2-1.8,1.8c-0.3,0.3-0.7,0.7-1,1c-0.6,0.7-1.3,1.3-2,1.9c-0.1,0.1-0.2,0.1-0.3,0.2c-0.5,0.3-1.1,0.4-1.8,0.6
		c-0.3,0.1-0.7,0.2-1,0.3c-0.9,0.3-1.8,0.5-2.7,0.8l-0.3,0.1L36.9,34z"/><path fill="#acd2fe" d="M59.7,9.3l1.4-1.4c0.4-0.4,1-0.7,1.6-0.7c0.3,0,0.7,0.1,1,0.4c0.6,0.6,0.5,1.8-0.3,2.6l-1.4,1.4L59.7,9.3z"/><line x1="9.5" x2="9.5" y1="25" y2="22.2" fill="none" stroke="#0229d5" stroke-linecap="round" stroke-linejoin="round" stroke-miterlimit="10" stroke-width="2"/><line x1="12.9" x2="14.4" y1="25.3" y2="23.7" fill="none" stroke="#0229d5" stroke-linecap="round" stroke-linejoin="round" stroke-miterlimit="10" stroke-width="2"/><line x1="14.8" x2="16.7" y1="28.2" y2="27.7" fill="none" stroke="#0229d5" stroke-linecap="round" stroke-linejoin="round" stroke-miterlimit="10" stroke-width="2"/><line x1="18.2" x2="19.8" y1="32.3" y2="29.4" fill="none" stroke="#0229d5" stroke-linecap="round" stroke-linejoin="round" stroke-miterlimit="10" stroke-width="2"/><line x1="22.5" x2="24.5" y1="34.2" y2="33.4" fill="none" stroke="#0229d5" stroke-linecap="round" stroke-linejoin="round" stroke-miterlimit="10" stroke-width="2"/><line x1="22.6" x2="24.6" y1="38.3" y2="39.8" fill="none" stroke="#0229d5" stroke-linecap="round" stroke-linejoin="round" stroke-miterlimit="10" stroke-width="2"/><line x1="20.2" x2="21.1" y1="40.3" y2="42" fill="none" stroke="#0229d5" stroke-linecap="round" stroke-linejoin="round" stroke-miterlimit="10" stroke-width="2"/><line x1="16.3" x2="16" y1="40.4" y2="41.7" fill="none" stroke="#0229d5" stroke-linecap="round" stroke-linejoin="round" stroke-miterlimit="10" stroke-width="2"/><line x1="12.6" x2="11" y1="38.8" y2="41.4" fill="none" stroke="#0229d5" stroke-linecap="round" stroke-linejoin="round" stroke-miterlimit="10" stroke-width="2"/><line x1="10.1" x2="9" y1="36.6" y2="37.3" fill="none" stroke="#0229d5" stroke-linecap="round" stroke-linejoin="round" stroke-miterlimit="10" stroke-width="2"/><line x1="8.1" x2="5.6" y1="33.4" y2="34.5" fill="none" stroke="#0229d5" stroke-linecap="round" stroke-linejoin="round" stroke-miterlimit="10" stroke-width="2"/><line x1="7.2" x2="5.6" y1="29.8" y2="30.1" fill="none" stroke="#0229d5" stroke-linecap="round" stroke-linejoin="round" stroke-miterlimit="10" stroke-width="2"/><line x1="7.7" x2="6.6" y1="26.6" y2="25.8" fill="none" stroke="#0229d5" stroke-linecap="round" stroke-linejoin="round" stroke-miterlimit="10" stroke-width="2"/><path fill="none" stroke="#0229d5" stroke-dasharray="0 3 35 3" stroke-linecap="round" stroke-linejoin="round" stroke-miterlimit="10" stroke-width="2" d="M50.8,24.1c0.9,2.7,1.4,5.6,1.4,8.6c0,14.4-11.7,26.1-26.1,26.1C11.7,58.8,0,47.1,0,32.7
		C0,18.2,11.7,6.5,26.1,6.5c8.5,0,16,4,20.7,10.3L50.8,24.1z"/><path fill="none" stroke="#0229d5" stroke-linecap="round" stroke-linejoin="round" stroke-miterlimit="10" stroke-width="2" d="M27.6,46.9c0-2.5,2.1-4.6,4.6-4.6c2.5,0,4.6,2.1,4.6,4.6c0,2.5-2.1,4.6-4.6,4.6C29.7,51.5,27.6,49.5,27.6,46.9
		z"/><line x1="32.2" x2="32.2" y1="51.5" y2="53.2" fill="none" stroke="#0229d5" stroke-linecap="round" stroke-linejoin="round" stroke-miterlimit="10" stroke-width="2"/><line x1="35.5" x2="36.7" y1="50.2" y2="51.4" fill="none" stroke="#0229d5" stroke-linecap="round" stroke-linejoin="round" stroke-miterlimit="10" stroke-width="2"/><line x1="36.8" x2="38.5" y1="46.9" y2="46.9" fill="none" stroke="#0229d5" stroke-linecap="round" stroke-linejoin="round" stroke-miterlimit="10" stroke-width="2"/><line x1="35.5" x2="36.7" y1="43.7" y2="42.5" fill="none" stroke="#0229d5" stroke-linecap="round" stroke-linejoin="round" stroke-miterlimit="10" stroke-width="2"/><line x1="32.2" x2="32.2" y1="42.3" y2="40.6" fill="none" stroke="#0229d5" stroke-linecap="round" stroke-linejoin="round" stroke-miterlimit="10" stroke-width="2"/><line x1="29" x2="27.8" y1="43.7" y2="42.5" fill="none" stroke="#0229d5" stroke-linecap="round" stroke-linejoin="round" stroke-miterlimit="10" stroke-width="2"/><line x1="27.6" x2="25.9" y1="46.9" y2="46.9" fill="none" stroke="#0229d5" stroke-linecap="round" stroke-linejoin="round" stroke-miterlimit="10" stroke-width="2"/><line x1="29" x2="27.8" y1="50.2" y2="51.4" fill="none" stroke="#0229d5" stroke-linecap="round" stroke-linejoin="round" stroke-miterlimit="10" stroke-width="2"/><path fill="none" stroke="#0229d5" stroke-linecap="round" stroke-linejoin="round" stroke-miterlimit="10" stroke-width="2" d="M32.4 45c0-.1.1-.2.2-.2.1 0 .2.1.2.2 0 .1-.1.2-.2.2C32.5 45.2 32.4 45.1 32.4 45zM31.1 47.9c0-.1.1-.2.2-.2.1 0 .2.1.2.2 0 .1-.1.2-.2.2C31.2 48.1 31.1 48 31.1 47.9zM33.9 47.3c0-.1.1-.2.2-.2s.2.1.2.2c0 .1-.1.2-.2.2S33.9 47.5 33.9 47.3zM23.8 16.8c0-2.5 2.1-4.6 4.6-4.6 2.5 0 4.6 2.1 4.6 4.6 0 2.5-2.1 4.6-4.6 4.6C25.9 21.4 23.8 19.3 23.8 16.8z"/><line x1="28.4" x2="28.4" y1="21.4" y2="23.1" fill="none" stroke="#0229d5" stroke-linecap="round" stroke-linejoin="round" stroke-miterlimit="10" stroke-width="2"/><line x1="31.6" x2="32.8" y1="20.1" y2="21.3" fill="none" stroke="#0229d5" stroke-linecap="round" stroke-linejoin="round" stroke-miterlimit="10" stroke-width="2"/><line x1="33" x2="34.7" y1="16.8" y2="16.8" fill="none" stroke="#0229d5" stroke-linecap="round" stroke-linejoin="round" stroke-miterlimit="10" stroke-width="2"/><line x1="31.6" x2="32.8" y1="13.6" y2="12.3" fill="none" stroke="#0229d5" stroke-linecap="round" stroke-linejoin="round" stroke-miterlimit="10" stroke-width="2"/><line x1="28.4" x2="28.4" y1="12.2" y2="10.5" fill="none" stroke="#0229d5" stroke-linecap="round" stroke-linejoin="round" stroke-miterlimit="10" stroke-width="2"/><line x1="25.1" x2="23.9" y1="13.6" y2="12.3" fill="none" stroke="#0229d5" stroke-linecap="round" stroke-linejoin="round" stroke-miterlimit="10" stroke-width="2"/><line x1="23.8" x2="22.1" y1="16.8" y2="16.8" fill="none" stroke="#0229d5" stroke-linecap="round" stroke-linejoin="round" stroke-miterlimit="10" stroke-width="2"/><line x1="25.1" x2="23.9" y1="20.1" y2="21.3" fill="none" stroke="#0229d5" stroke-linecap="round" stroke-linejoin="round" stroke-miterlimit="10" stroke-width="2"/><path fill="none" stroke="#0229d5" stroke-linecap="round" stroke-linejoin="round" stroke-miterlimit="10" stroke-width="2" d="M28.6 14.9c0-.1.1-.2.2-.2.1 0 .2.1.2.2 0 .1-.1.2-.2.2C28.7 15.1 28.6 15 28.6 14.9zM27.2 17.8c0-.1.1-.2.2-.2.1 0 .2.1.2.2 0 .1-.1.2-.2.2C27.3 18 27.2 17.9 27.2 17.8zM30.1 17.2c0-.1.1-.2.2-.2.1 0 .2.1.2.2 0 .1-.1.2-.2.2C30.2 17.4 30.1 17.3 30.1 17.2z"/><polygon fill="none" stroke="#0229d5" stroke-linecap="round" stroke-linejoin="round" stroke-miterlimit="10" stroke-width="2" points="63.4 14.5 60.4 17.5 53.3 10.4 51.7 8.8 54.7 5.8"/><path fill="none" stroke="#0229d5" stroke-linecap="round" stroke-linejoin="round" stroke-miterlimit="10" stroke-width="2" d="M49,25.9c-1.1,1.1-2.3,2.3-3.4,3.4c-1,1-2,2.1-3,3c-0.1,0.1-0.3,0.2-0.4,0.3c-0.9,0.5-2,0.7-3,1
		c-1.3,0.4-2.6,0.7-3.9,1.1c-0.1,0-0.8,0.1-0.8,0.2c0.6-2.2,1.2-4.3,1.8-6.5c0.2-0.8,0.5-1.7,1.2-2.2c0.3-0.2,0.5-0.5,0.8-0.7
		L49,25.9z"/><line x1="38.2" x2="38.1" y1="25.5" y2="25.5" fill="none" stroke="#0229d5" stroke-linecap="round" stroke-linejoin="round" stroke-miterlimit="10" stroke-width="2"/><path fill="none" stroke="#0229d5" stroke-dasharray="0 3 15 3" stroke-linecap="round" stroke-linejoin="round" stroke-miterlimit="10" stroke-width="2" d="M57.3,8.3l1.8-1.8l0.2-0.2c1.2-1.2,3-1.3,4-0.3c1,1,0.9,2.8-0.3,4l-0.2,0.2L60.9,12L57.3,8.3z"/><path fill="#fff" d="M19,40.6c-0.2,0-0.3,0-0.5,0c-0.8-0.1-1.7-0.3-2.7-0.7c-0.8-0.3-1.4-0.8-2.2-1.3l-0.1-0.1
		c-0.5-0.4-0.9-0.8-1.3-1.2c-1-1-1.8-2.3-2.4-4.1c-0.2-0.6-0.3-1.2-0.5-1.9c-0.6-3.4,1-4.2,1.5-4.4c0.4-0.1,0.8-0.2,1.2-0.2
		c0.1,0,0.1,0,0.2,0c0.5,0,1.1,0.4,1.6,0.9c0.2,0.2,0.4,0.4,0.5,0.7c0.2,0.3,0.3,0.6,0.4,0.9l0,0.1c0,0.2,0,0.3,0,0.5
		c0,0.3,0.1,0.6,0.1,0.9c0.5,2.2,2.6,3.5,4.5,3.6c0.2,0,0.4,0,0.6,0c0.2,0,0.4,0,0.6,0c0.2,0,0.4,0.1,0.7,0.3
		c0.2,0.1,0.4,0.2,0.6,0.4c1.3,1.1,1.2,2.8,0.6,4.1c-0.5,0.9-1.3,1.2-2.6,1.5C19.7,40.6,19.3,40.6,19,40.6z"/><path fill="none" stroke="#0229d5" stroke-dasharray="20 3 27 3" stroke-linecap="round" stroke-linejoin="round" stroke-miterlimit="10" stroke-width="2" d="M14.8,28.1c-0.1-0.5-0.3-0.9-0.5-1.3c-0.2-0.3-0.4-0.6-0.7-0.9c-0.6-0.6-1.4-1.2-2.3-1.2
		c-0.6-0.1-1.3,0.1-1.9,0.2c0,0-3,0.8-2.2,5.5c0.1,0.7,0.3,1.4,0.5,2c0.6,1.7,1.4,3.3,2.7,4.5c0.5,0.4,0.9,0.9,1.4,1.2
		c0.8,0.6,1.6,1.2,2.5,1.6c1,0.4,1.9,0.7,3,0.8c0.6,0.1,1.2,0,1.8-0.1c1.3-0.3,2.6-0.7,3.3-2c0.9-1.8,0.7-4-0.9-5.3
		c-0.3-0.2-0.5-0.4-0.8-0.5c-0.4-0.2-0.8-0.4-1.3-0.3c-0.3,0-0.6,0-1,0c-1.6-0.1-3.3-1.2-3.6-2.9C14.9,29.1,14.9,28.6,14.8,28.1
		C14.8,28.1,14.8,28.1,14.8,28.1z"/><path fill="#fff" d="M58.9,16c-0.5,0.5-0.9,0.9-1.4,1.4c-1.2,1.1-2.3,2.3-3.5,3.5c-1.4,1.4-2.9,2.9-4.3,4.4
		c-0.2,0.2-0.4,0.5-0.7,0.7h0l-10.8-0.4c0.2-0.2,0.4-0.5,0.6-0.7c1.3-1.3,2.7-2.6,4-4c1.6-1.5,3.1-3.1,4.6-4.7
		c1.3-1.3,2.6-2.6,3.9-3.9c0.6-0.6,1.2-1.3,1.9-1.9c0,0,0,0,0,0L58.9,16z"/><path fill="#acd2fe" d="M41.5,25.6c0.5-0.5,1.1-1.1,1.6-1.6c0.5-0.5,1-0.9,1.4-1.4c1-1,2-2,3-3c0.6-0.6,1.1-1.1,1.7-1.7
		c1.3-1.3,2.6-2.6,3.9-3.9c0.3-0.3,1.1-1.1,1.2-1.2l4.2,4.2c-0.2,0.2-5.4,5.4-6,6c-0.8,0.8-1.7,1.7-2.5,2.5
		c-0.1,0.1-0.2,0.2-0.4,0.4L41.5,25.6z"/><path fill="none" stroke="#0229d5" stroke-dasharray="0 3 56 3" stroke-linecap="round" stroke-linejoin="round" stroke-miterlimit="10" stroke-width="2" d="M58.9,16c-0.5,0.5-0.9,0.9-1.4,1.4c-1.2,1.1-2.3,2.3-3.5,3.5c-1.4,1.4-2.9,2.9-4.3,4.4
		c-0.2,0.2-0.4,0.5-0.7,0.7h0l-10.8-0.4c0.2-0.2,0.4-0.5,0.6-0.7c1.3-1.3,2.7-2.6,4-4c1.6-1.5,3.1-3.1,4.6-4.7
		c1.3-1.3,2.6-2.6,3.9-3.9c0.6-0.6,1.2-1.3,1.9-1.9c0,0,0,0,0,0L58.9,16z"/></svg>